<?xml version="1.0" encoding="utf-8"?>
<!-- Generator: Adobe Illustrator 16.0.0, SVG Export Plug-In . SVG Version: 6.00 Build 0)  -->
<!DOCTYPE svg PUBLIC "-//W3C//DTD SVG 1.1//EN" "http://www.w3.org/Graphics/SVG/1.1/DTD/svg11.dtd">
<svg version="1.1" id="Calque_1" xmlns="http://www.w3.org/2000/svg" xmlns:xlink="http://www.w3.org/1999/xlink" x="0px" y="0px"
	 width="245.211px" height="68.042px" viewBox="0 141.725 245.211 68.042" enable-background="new 0 141.725 245.211 68.042"
	 xml:space="preserve">
<path fill="#0000FF" d="M242.355,174.323c1.563,0,2.836-1.271,2.836-2.837v-26.928c0-1.564-1.271-2.834-2.836-2.834h-97.795
	c-1.564,0-2.834,1.27-2.834,2.834v26.928v5.679v32.603h29.772c0.026,0,0.056-0.009,0.082-0.01h70.776
	c1.564,0,2.834-1.271,2.834-2.835v-26.929c0-1.568-1.27-2.837-2.834-2.837h-68.033v-2.834H242.355z"/>
<path fill="#FF0000" d="M138.896,177.165v-32.605c0-1.563-1.271-2.834-2.836-2.834H109.13c-1.566,0-2.836,1.271-2.836,2.834v32.606
	h-2.834v32.602h32.603c0.002,0,0.004,0,0.006,0h5.656v-32.603H138.896z"/>
<g id="dal">
	<path fill="#00FF00" d="M103.472,144.559c0-1.563-1.271-2.834-2.834-2.834H73.71H2.846c-1.566,0-2.836,1.271-2.836,2.834v26.93
		c0,1.563,1.27,2.836,2.836,2.836h68.031v2.843H2.846c-1.566,0-2.834,1.27-2.834,2.834v26.93c0,1.564,1.268,2.836,2.834,2.836
		h70.867h26.928h2.831v-32.602V144.559z"/>
</g>
</svg>
