<?xml version="1.0" encoding="utf-8"?>
<!-- Generator: Adobe Illustrator 16.0.0, SVG Export Plug-In . SVG Version: 6.00 Build 0)  -->
<!DOCTYPE svg PUBLIC "-//W3C//DTD SVG 1.1//EN" "http://www.w3.org/Graphics/SVG/1.1/DTD/svg11.dtd">
<svg version="1.1" id="Calque_1" xmlns="http://www.w3.org/2000/svg" xmlns:xlink="http://www.w3.org/1999/xlink" x="0px" y="0px"
	 width="245.211px" height="138.896px" viewBox="0 0 245.211 138.896" enable-background="new 0 0 245.211 138.896"
	 xml:space="preserve">
<g>
	<rect x="138.884" y="32.599" fill="none" width="2.836" height="2.834"/>
	<path fill="#0000FF" d="M242.376,0h-26.93c-1.564,0-2.834,1.269-2.834,2.834v133.229c0,1.565,1.27,2.834,2.834,2.834h26.93
		c1.564,0,2.834-1.269,2.834-2.834V2.834C245.21,1.269,243.94,0,242.376,0z"/>
	<path fill="#FF0000" d="M209.692,2.265C209.429,0.972,208.284,0,206.915,0h-26.93c-0.002,0-0.004,0-0.004,0h-2.83v32.599v103.464
		c0,1.565,1.27,2.834,2.834,2.834h26.93c1.564,0,2.834-1.269,2.834-2.834V29.764V2.835c0-0.158-0.021-0.312-0.045-0.46
		C209.698,2.339,209.7,2.3,209.692,2.265z"/>
	<path fill="#00FF00" d="M171.487,0c-0.002,0-0.004,0-0.006,0H109.12c-1.566,0-2.834,1.269-2.834,2.834v32.583h-2.82v32.598h5.504
		c0.051,0.003,0.1,0.017,0.15,0.017h62.361c1.564,0,2.836-1.271,2.836-2.834V32.599h2.834V0H171.487z M141.72,35.433h-2.836v-2.834
		h2.836V35.433z"/>
	<path fill="#FFBF00" d="M103.466,2.834c0-1.565-1.27-2.834-2.834-2.834h-26.93H2.837C1.271,0,0.001,1.269,0.001,2.834v26.929
		c0,1.565,1.27,2.835,2.836,2.835h68.031v2.834H2.837c-1.566,0.001-2.836,1.271-2.836,2.836v26.931v43.937v26.929
		c0,1.369,0.973,2.513,2.264,2.776c0.186,0.038,0.375,0.058,0.572,0.058h26.928h2.836V106.3V68.032h68.031
		c0.053,0,0.102-0.015,0.154-0.018h2.68V35.417V2.834z"/>
	<path fill="#898989" d="M73.703,138.898h26.93h1.418h69.447c1.563,0,2.834-1.27,2.834-2.835v-26.929
		c0-1.565-1.271-2.834-2.834-2.834h-68.031v-2.834h68.031c1.563,0,2.834-1.271,2.834-2.835v-26.93c0-1.565-1.271-2.834-2.834-2.834
		H73.702c-1.566,0-2.836,1.269-2.836,2.834v26.929c0,0.003,0.002,0.006,0.002,0.01v5.66v32.598H73.703z"/>
	<path fill="#7B3F00" d="M39.689,138.898h25.51h5.669V106.3h-2.836V73.701c0-1.565-1.27-2.834-2.834-2.834h-26.93
		c-1.566,0-2.834,1.269-2.834,2.834V106.3h-2.833v32.598H39.689z"/>
	
		<line fill="none" stroke="#FFFF00" stroke-width="0" stroke-linecap="round" stroke-linejoin="round" x1="70.868" y1="106.3" x2="70.868" y2="138.898"/>
</g>
</svg>
