<?xml version="1.0" encoding="utf-8"?>
<!-- Generator: Adobe Illustrator 16.0.0, SVG Export Plug-In . SVG Version: 6.00 Build 0)  -->
<!DOCTYPE svg PUBLIC "-//W3C//DTD SVG 1.1//EN" "http://www.w3.org/Graphics/SVG/1.1/DTD/svg11.dtd">
<svg version="1.1" id="Calque_1" xmlns="http://www.w3.org/2000/svg" xmlns:xlink="http://www.w3.org/1999/xlink" x="0px" y="0px"
	 width="396.85px" height="397.235px" viewBox="45 23 396.85 397.235" enable-background="new 45 23 396.85 397.235"
	 xml:space="preserve">
<g id="Calque_10" display="none">
	<g display="inline">
		<rect x="12.466" y="88.88" fill="none" stroke="#231F20" stroke-miterlimit="10" width="752.882" height="752.962"/>
		<line fill="none" stroke="#231F20" stroke-miterlimit="10" x1="12.466" y1="805.997" x2="765.348" y2="805.997"/>
		<line fill="none" stroke="#231F20" stroke-miterlimit="10" x1="12.466" y1="770.149" x2="765.348" y2="770.149"/>
		<line fill="none" stroke="#231F20" stroke-miterlimit="10" x1="12.466" y1="734.303" x2="765.348" y2="734.303"/>
		<line fill="none" stroke="#231F20" stroke-miterlimit="10" x1="12.466" y1="698.456" x2="765.348" y2="698.456"/>
		<line fill="none" stroke="#231F20" stroke-miterlimit="10" x1="12.466" y1="662.61" x2="765.348" y2="662.61"/>
		<line fill="none" stroke="#231F20" stroke-miterlimit="10" x1="12.466" y1="626.762" x2="765.348" y2="626.762"/>
		<line fill="none" stroke="#231F20" stroke-miterlimit="10" x1="12.466" y1="590.917" x2="765.348" y2="590.917"/>
		<line fill="none" stroke="#231F20" stroke-miterlimit="10" x1="12.466" y1="555.069" x2="765.348" y2="555.069"/>
		<line fill="none" stroke="#231F20" stroke-miterlimit="10" x1="12.466" y1="519.223" x2="765.348" y2="519.223"/>
		<line fill="none" stroke="#231F20" stroke-miterlimit="10" x1="765.348" y1="483.377" x2="12.466" y2="483.377"/>
		<line fill="none" stroke="#231F20" stroke-miterlimit="10" x1="12.466" y1="447.346" x2="765.348" y2="447.346"/>
		<line fill="none" stroke="#231F20" stroke-miterlimit="10" x1="12.466" y1="411.5" x2="765.348" y2="411.5"/>
		<line fill="none" stroke="#231F20" stroke-miterlimit="10" x1="12.466" y1="375.655" x2="765.348" y2="375.655"/>
		<line fill="none" stroke="#231F20" stroke-miterlimit="10" x1="12.466" y1="339.807" x2="765.348" y2="339.807"/>
		<line fill="none" stroke="#231F20" stroke-miterlimit="10" x1="12.466" y1="303.959" x2="765.348" y2="303.959"/>
		<line fill="none" stroke="#231F20" stroke-miterlimit="10" x1="12.466" y1="268.114" x2="765.348" y2="268.114"/>
		<line fill="none" stroke="#231F20" stroke-miterlimit="10" x1="12.466" y1="232.267" x2="765.348" y2="232.267"/>
		<line fill="none" stroke="#231F20" stroke-miterlimit="10" x1="12.466" y1="196.42" x2="765.348" y2="196.42"/>
		<line fill="none" stroke="#231F20" stroke-miterlimit="10" x1="12.466" y1="160.574" x2="765.348" y2="160.574"/>
		<line fill="none" stroke="#231F20" stroke-miterlimit="10" x1="12.466" y1="124.727" x2="765.348" y2="124.727"/>
		<line fill="none" stroke="#231F20" stroke-miterlimit="10" x1="729.505" y1="88.88" x2="729.505" y2="841.842"/>
		<line fill="none" stroke="#231F20" stroke-miterlimit="10" x1="693.662" y1="88.88" x2="693.662" y2="841.842"/>
		<line fill="none" stroke="#231F20" stroke-miterlimit="10" x1="657.82" y1="88.88" x2="657.82" y2="841.842"/>
		<line fill="none" stroke="#231F20" stroke-miterlimit="10" x1="621.977" y1="88.88" x2="621.977" y2="841.842"/>
		<line fill="none" stroke="#231F20" stroke-miterlimit="10" x1="586.134" y1="88.88" x2="586.134" y2="841.842"/>
		<line fill="none" stroke="#231F20" stroke-miterlimit="10" x1="550.291" y1="88.88" x2="550.291" y2="841.842"/>
		<line fill="none" stroke="#231F20" stroke-miterlimit="10" x1="514.448" y1="88.88" x2="514.448" y2="841.842"/>
		<line fill="none" stroke="#231F20" stroke-miterlimit="10" x1="478.606" y1="88.88" x2="478.606" y2="841.842"/>
		<line fill="none" stroke="#231F20" stroke-miterlimit="10" x1="442.763" y1="88.88" x2="442.763" y2="841.842"/>
		<line fill="none" stroke="#231F20" stroke-miterlimit="10" x1="406.92" y1="88.88" x2="406.92" y2="841.842"/>
		<line fill="none" stroke="#231F20" stroke-miterlimit="10" x1="370.894" y1="88.88" x2="370.894" y2="841.842"/>
		<line fill="none" stroke="#231F20" stroke-miterlimit="10" x1="335.051" y1="88.88" x2="335.051" y2="841.842"/>
		<line fill="none" stroke="#231F20" stroke-miterlimit="10" x1="299.208" y1="88.88" x2="299.208" y2="841.842"/>
		<line fill="none" stroke="#231F20" stroke-miterlimit="10" x1="263.365" y1="88.88" x2="263.365" y2="841.842"/>
		<line fill="none" stroke="#231F20" stroke-miterlimit="10" x1="227.522" y1="88.88" x2="227.522" y2="841.842"/>
		<line fill="none" stroke="#231F20" stroke-miterlimit="10" x1="191.68" y1="88.88" x2="191.68" y2="841.842"/>
		<line fill="none" stroke="#231F20" stroke-miterlimit="10" x1="155.837" y1="88.88" x2="155.837" y2="841.842"/>
		<line fill="none" stroke="#231F20" stroke-miterlimit="10" x1="119.994" y1="88.88" x2="119.994" y2="841.842"/>
		<line fill="none" stroke="#231F20" stroke-miterlimit="10" x1="84.151" y1="88.88" x2="84.151" y2="841.842"/>
		<line fill="none" stroke="#231F20" stroke-miterlimit="10" x1="48.309" y1="88.88" x2="48.309" y2="841.842"/>
	</g>
</g>
<g id="Calque_11" display="none">
	<path display="inline" fill="none" stroke="#231F20" stroke-miterlimit="10" d="M354.578,653.7"/>
	<polygon display="inline" fill="none" stroke="#231F20" stroke-miterlimit="10" points="390.421,725.393 103.495,438.622 
		390.421,151.664 677.163,438.622 	"/>
	<polygon display="inline" fill="none" stroke="#231F20" stroke-miterlimit="10" points="390.421,474.467 354.578,438.622 
		390.329,402.59 426.264,438.528 	"/>
	<polygon display="inline" fill="none" stroke="#231F20" stroke-miterlimit="10" points="390.329,546.161 282.709,438.622 
		390.329,330.897 497.949,438.622 	"/>
	<polygon display="inline" fill="none" stroke="#231F20" stroke-miterlimit="10" points="390.421,617.854 211.023,438.622 
		390.421,259.204 569.635,438.622 	"/>
	<polygon display="inline" fill="none" stroke="#231F20" stroke-miterlimit="10" points="390.421,689.547 139.338,438.622 
		390.329,187.511 641.321,438.528 	"/>
</g>
<g id="Calque_14">
	<g id="al">
		<polygon fill="#BAB9B9" points="223.169,340.741 183.999,301.92 183.999,201.901 223.501,162.239 		"/>
		<polygon fill="#BAB9B9" points="263.587,340.741 302.803,301.92 302.803,201.901 263.313,162.239 		"/>
	</g>
	<g id="majid">
		<path fill="none" stroke="#231F20" stroke-miterlimit="10" d="M422.026,231.713"/>
		<path fill="none" stroke="#231F20" stroke-miterlimit="10" d="M44.999,221.499"/>
		<g>
			<polyline fill="#231F20" points="44.999,221.499 44.999,221.499 243.353,23 441.85,221.499 322.801,340.874 322.801,281.327 
				362.44,241.69 302.967,241.678 302.967,201.901 362.44,201.901 263.272,102.706 263.313,162.224 223.638,162.224 223.59,102.706 
				124.453,201.901 144.192,201.901 164.031,182.065 203.693,182.065 144.192,241.678 124.355,241.657 223.638,340.874 
				223.638,321.042 263.313,321.042 263.313,360.698 263.313,400.381 243.426,420.235 44.999,221.499 			"/>
		</g>
	</g>
</g>
<g id="Calque_15" display="none">
	<g display="inline">
		<polyline fill="none" stroke="#231F20" stroke-miterlimit="10" points="63.309,452.903 63.309,452.903 421.737,94.252 
			780.348,452.903 565.291,668.61 565.291,561.016 636.885,489.389 529.448,489.377 529.448,417.499 636.885,417.499 
			457.671,238.267 457.763,345.807 386.077,345.807 385.998,238.267 206.852,417.499 242.522,417.499 278.365,381.653 
			350.051,381.653 242.522,489.377 206.68,489.35 386.051,668.61 386.077,632.762 457.763,632.762 457.763,704.456 457.763,776.149 
			421.828,811.997 63.309,452.903 		"/>
	</g>
	<polygon display="inline" fill="none" stroke="#231F20" stroke-miterlimit="10" points="458.304,668.379 529.079,598.25 
		529.079,417.5 457.733,345.827 	"/>
	<polygon display="inline" fill="none" stroke="#231F20" stroke-miterlimit="10" points="385.246,668.379 314.471,598.25 
		314.471,417.5 385.817,345.827 	"/>
</g>
<g id="Calque_17" display="none">
	<g display="inline">
		<rect x="395.237" y="477.114" fill="none" width="376.44" height="376.48"/>
		<line fill="none" x1="395.237" y1="835.672" x2="771.678" y2="835.672"/>
		<line fill="none" x1="395.237" y1="817.749" x2="771.678" y2="817.749"/>
		<line fill="none" x1="395.237" y1="799.825" x2="771.678" y2="799.825"/>
		<line fill="none" x1="395.237" y1="781.901" x2="771.678" y2="781.901"/>
		<line fill="none" x1="395.237" y1="763.979" x2="771.678" y2="763.979"/>
		<line fill="none" x1="395.237" y1="746.055" x2="771.678" y2="746.055"/>
		<line fill="none" x1="395.237" y1="728.131" x2="771.678" y2="728.131"/>
		<line fill="none" x1="395.237" y1="710.208" x2="771.678" y2="710.208"/>
		<line fill="none" x1="395.237" y1="692.286" x2="771.678" y2="692.286"/>
		<line fill="none" x1="771.678" y1="674.362" x2="395.237" y2="674.362"/>
		<line fill="none" x1="395.237" y1="656.346" x2="771.678" y2="656.346"/>
		<line fill="none" x1="395.237" y1="638.422" x2="771.678" y2="638.422"/>
		<line fill="none" x1="395.237" y1="620.5" x2="771.678" y2="620.5"/>
		<line fill="none" x1="395.237" y1="602.577" x2="771.678" y2="602.577"/>
		<line fill="none" x1="395.237" y1="584.653" x2="771.678" y2="584.653"/>
		<line fill="none" x1="395.237" y1="566.731" x2="771.678" y2="566.731"/>
		<line fill="none" x1="395.237" y1="548.807" x2="771.678" y2="548.807"/>
		<line fill="none" x1="395.237" y1="530.883" x2="771.678" y2="530.883"/>
		<line fill="none" x1="395.237" y1="512.961" x2="771.678" y2="512.961"/>
		<line fill="none" x1="395.237" y1="495.038" x2="771.678" y2="495.038"/>
		<line fill="none" x1="753.757" y1="477.114" x2="753.757" y2="853.594"/>
		<line fill="none" x1="735.835" y1="477.114" x2="735.835" y2="853.594"/>
		<line fill="none" x1="717.913" y1="477.114" x2="717.913" y2="853.594"/>
		<line fill="none" x1="699.992" y1="477.114" x2="699.992" y2="853.594"/>
		<line fill="none" x1="682.072" y1="477.114" x2="682.072" y2="853.594"/>
		<line fill="none" x1="664.15" y1="477.114" x2="664.15" y2="853.594"/>
		<line fill="none" x1="646.23" y1="477.114" x2="646.23" y2="853.594"/>
		<line fill="none" x1="628.307" y1="477.114" x2="628.307" y2="853.594"/>
		<line fill="none" x1="610.386" y1="477.114" x2="610.386" y2="853.594"/>
		<line fill="none" x1="592.464" y1="477.114" x2="592.464" y2="853.594"/>
		<line fill="none" x1="574.451" y1="477.114" x2="574.451" y2="853.594"/>
		<line fill="none" x1="556.53" y1="477.114" x2="556.53" y2="853.594"/>
		<line fill="none" x1="538.609" y1="477.114" x2="538.609" y2="853.594"/>
		<line fill="none" x1="520.687" y1="477.114" x2="520.687" y2="853.594"/>
		<line fill="none" x1="502.766" y1="477.114" x2="502.766" y2="853.594"/>
		<line fill="none" x1="484.844" y1="477.114" x2="484.844" y2="853.594"/>
		<line fill="none" x1="466.923" y1="477.114" x2="466.923" y2="853.594"/>
		<line fill="none" x1="449.001" y1="477.114" x2="449.001" y2="853.594"/>
		<line fill="none" x1="431.08" y1="477.114" x2="431.08" y2="853.594"/>
		<line fill="none" x1="413.159" y1="477.114" x2="413.159" y2="853.594"/>
	</g>
</g>
</svg>
