<?xml version="1.0" encoding="utf-8"?>
<!-- Generator: Adobe Illustrator 16.0.0, SVG Export Plug-In . SVG Version: 6.00 Build 0)  -->
<!DOCTYPE svg PUBLIC "-//W3C//DTD SVG 1.1//EN" "http://www.w3.org/Graphics/SVG/1.1/DTD/svg11.dtd">
<svg version="1.1" id="Calque_1" xmlns="http://www.w3.org/2000/svg" xmlns:xlink="http://www.w3.org/1999/xlink" x="0px" y="0px"
	 width="357.717px" height="550.497px" viewBox="92.75 10.594 357.717 550.497"
	 enable-background="new 92.75 10.594 357.717 550.497" xml:space="preserve">
<g id="Calque_10" display="none">
	<g display="inline">
		<rect x="19.56" y="106.897" fill="none" stroke="#231F20" stroke-miterlimit="10" width="752.882" height="752.963"/>
		<line fill="none" stroke="#231F20" stroke-miterlimit="10" x1="19.56" y1="824.014" x2="772.441" y2="824.014"/>
		<line fill="none" stroke="#231F20" stroke-miterlimit="10" x1="19.56" y1="788.167" x2="772.441" y2="788.167"/>
		<line fill="none" stroke="#231F20" stroke-miterlimit="10" x1="19.56" y1="752.321" x2="772.441" y2="752.321"/>
		<line fill="none" stroke="#231F20" stroke-miterlimit="10" x1="19.56" y1="716.473" x2="772.441" y2="716.473"/>
		<line fill="none" stroke="#231F20" stroke-miterlimit="10" x1="19.56" y1="680.627" x2="772.441" y2="680.627"/>
		<line fill="none" stroke="#231F20" stroke-miterlimit="10" x1="19.56" y1="644.78" x2="772.441" y2="644.78"/>
		<line fill="none" stroke="#231F20" stroke-miterlimit="10" x1="19.56" y1="608.934" x2="772.441" y2="608.934"/>
		<line fill="none" stroke="#231F20" stroke-miterlimit="10" x1="19.56" y1="573.086" x2="772.441" y2="573.086"/>
		<line fill="none" stroke="#231F20" stroke-miterlimit="10" x1="19.56" y1="537.241" x2="772.441" y2="537.241"/>
		<line fill="none" stroke="#231F20" stroke-miterlimit="10" x1="772.441" y1="501.395" x2="19.56" y2="501.395"/>
		<line fill="none" stroke="#231F20" stroke-miterlimit="10" x1="19.56" y1="465.364" x2="772.441" y2="465.364"/>
		<line fill="none" stroke="#231F20" stroke-miterlimit="10" x1="19.56" y1="429.516" x2="772.441" y2="429.516"/>
		<line fill="none" stroke="#231F20" stroke-miterlimit="10" x1="19.56" y1="393.67" x2="772.441" y2="393.67"/>
		<line fill="none" stroke="#231F20" stroke-miterlimit="10" x1="19.56" y1="357.824" x2="772.441" y2="357.824"/>
		<line fill="none" stroke="#231F20" stroke-miterlimit="10" x1="19.56" y1="321.977" x2="772.441" y2="321.977"/>
		<line fill="none" stroke="#231F20" stroke-miterlimit="10" x1="19.56" y1="286.13" x2="772.441" y2="286.13"/>
		<line fill="none" stroke="#231F20" stroke-miterlimit="10" x1="19.56" y1="250.284" x2="772.441" y2="250.284"/>
		<line fill="none" stroke="#231F20" stroke-miterlimit="10" x1="19.56" y1="214.437" x2="772.441" y2="214.437"/>
		<line fill="none" stroke="#231F20" stroke-miterlimit="10" x1="19.56" y1="178.59" x2="772.441" y2="178.59"/>
		<line fill="none" stroke="#231F20" stroke-miterlimit="10" x1="19.56" y1="142.744" x2="772.441" y2="142.744"/>
		<line fill="none" stroke="#231F20" stroke-miterlimit="10" x1="736.599" y1="106.897" x2="736.599" y2="859.86"/>
		<line fill="none" stroke="#231F20" stroke-miterlimit="10" x1="700.756" y1="106.897" x2="700.756" y2="859.86"/>
		<line fill="none" stroke="#231F20" stroke-miterlimit="10" x1="664.913" y1="106.897" x2="664.913" y2="859.86"/>
		<line fill="none" stroke="#231F20" stroke-miterlimit="10" x1="629.07" y1="106.897" x2="629.07" y2="859.86"/>
		<line fill="none" stroke="#231F20" stroke-miterlimit="10" x1="593.228" y1="106.897" x2="593.228" y2="859.86"/>
		<line fill="none" stroke="#231F20" stroke-miterlimit="10" x1="557.385" y1="106.897" x2="557.385" y2="859.86"/>
		<line fill="none" stroke="#231F20" stroke-miterlimit="10" x1="521.542" y1="106.897" x2="521.542" y2="859.86"/>
		<line fill="none" stroke="#231F20" stroke-miterlimit="10" x1="485.699" y1="106.897" x2="485.699" y2="859.86"/>
		<line fill="none" stroke="#231F20" stroke-miterlimit="10" x1="449.856" y1="106.897" x2="449.856" y2="859.86"/>
		<line fill="none" stroke="#231F20" stroke-miterlimit="10" x1="414.014" y1="106.897" x2="414.014" y2="859.86"/>
		<line fill="none" stroke="#231F20" stroke-miterlimit="10" x1="377.987" y1="106.897" x2="377.987" y2="859.86"/>
		<line fill="none" stroke="#231F20" stroke-miterlimit="10" x1="342.145" y1="106.897" x2="342.145" y2="859.86"/>
		<line fill="none" stroke="#231F20" stroke-miterlimit="10" x1="306.302" y1="106.897" x2="306.302" y2="859.86"/>
		<line fill="none" stroke="#231F20" stroke-miterlimit="10" x1="270.459" y1="106.897" x2="270.459" y2="859.86"/>
		<line fill="none" stroke="#231F20" stroke-miterlimit="10" x1="234.616" y1="106.897" x2="234.616" y2="859.86"/>
		<line fill="none" stroke="#231F20" stroke-miterlimit="10" x1="198.773" y1="106.897" x2="198.773" y2="859.86"/>
		<line fill="none" stroke="#231F20" stroke-miterlimit="10" x1="162.931" y1="106.897" x2="162.931" y2="859.86"/>
		<line fill="none" stroke="#231F20" stroke-miterlimit="10" x1="127.088" y1="106.897" x2="127.088" y2="859.86"/>
		<line fill="none" stroke="#231F20" stroke-miterlimit="10" x1="91.245" y1="106.897" x2="91.245" y2="859.86"/>
		<line fill="none" stroke="#231F20" stroke-miterlimit="10" x1="55.402" y1="106.897" x2="55.402" y2="859.86"/>
	</g>
</g>
<g id="Calque_16">
	<polyline fill="#231F20" points="352.712,538.107 364.204,526.614 364.204,503.627 375.695,492.136 375.695,515.121 
		387.187,503.627 387.187,480.643 398.737,469.15 398.737,492.136 410.229,480.643 410.229,457.658 433.212,434.613 
		433.212,446.106 421.72,457.658 421.72,469.15 433.212,457.658 433.212,480.643 352.712,561.091 352.712,539.487 	"/>
	<g>
		<polygon fill="#231F20" points="410.199,364.808 398.708,376.299 398.708,422.532 387.216,434.055 387.157,411.01 
			364.174,434.055 364.174,445.488 375.666,433.996 375.666,445.606 352.742,468.533 352.742,445.546 341.192,457.04 
			341.192,480.024 329.7,491.518 329.7,468.533 318.209,480.024 318.209,503.01 306.717,514.503 306.717,515.883 306.717,537.488 
			433.183,411.01 410.199,411.01 		"/>
		<polygon fill="#231F20" points="421.721,353.605 421.721,410.664 433.212,399.171 433.212,342.113 		"/>
	</g>
	<g>
		<g>
			<g>
				<polygon fill="#231F20" points="369.961,363.028 381.453,351.535 381.453,328.549 385.674,324.329 385.674,347.313 
					404.436,328.549 404.436,305.569 408.716,301.311 408.716,324.329 427.478,305.564 427.478,282.577 443.19,266.822 
					443.19,268.022 431.699,279.574 431.699,301.342 443.19,289.851 443.19,302.552 369.961,375.736 				"/>
			</g>
		</g>
	</g>
	<g>
		<g>
			<g>
				<polygon fill="#231F20" points="323.966,339.424 335.458,327.932 335.458,304.945 339.679,300.725 339.679,323.709 
					358.441,304.945 358.441,281.966 362.721,277.708 362.721,300.725 392.914,270.528 392.914,248.634 381.423,260.127 
					381.423,258.974 397.158,243.196 397.218,266.241 415.957,247.451 415.957,201.221 420.179,197 420.179,238.06 438.021,238.06 
					323.966,352.127 				"/>
			</g>
			<g>
				<polygon fill="#231F20" points="438.97,178.527 443.19,174.306 443.19,221.082 438.97,225.304 				"/>
			</g>
		</g>
	</g>
	<g>
		<path fill="#231F20" d="M369.964,203.072l6.352-6.352c2.827-2.828,5.14-8.414,5.14-12.412v-8.445
			c0-3.999,2.313-9.583,5.141-12.411l1.21-1.21c2.828-2.828,5.141-1.87,5.141,2.129v8.445c0,3.999,2.313,4.957,5.142,2.129
			l1.21-1.211c2.827-2.828,5.141-8.413,5.141-12.411v-8.445c0-3.999,2.319-9.578,5.153-12.398l1.243-1.236
			c2.835-2.82,5.154-1.856,5.154,2.142v8.445c0,3.999,2.313,4.956,5.14,2.128l1.212-1.21c2.827-2.828,5.141-8.414,5.141-12.412
			v-8.444c0-3.999,2.31-9.587,5.134-12.418l12.715-12.749c2.823-2.832,5.134-2.563,5.134,0.599s-2.308,8.066-5.127,10.901
			l-1.237,1.243c-2.819,2.834-5.127,7.74-5.127,10.9s2.313,3.433,5.142,0.605l1.21-1.21c2.827-2.828,5.141-1.869,5.141,2.129v8.444
			c0,3.999-2.313,9.583-5.143,12.41l-70.217,70.171c-2.829,2.827-5.143,1.868-5.143-2.13v-14.335"/>
	</g>
	<g>
		<g>
			<g>
				<path fill="#231F20" d="M427.451,37.042c0-3.998-2.313-4.957-5.142-2.128l-1.21,1.21c-2.827,2.828-5.141,8.414-5.141,12.411
					v31.691c0,3.999-2.31,9.587-5.134,12.418l-1.224,1.228c-2.823,2.831-5.143,1.876-5.152-2.123l-0.022-8.504
					c-0.01-3.999-2.329-4.954-5.152-2.123l-12.715,12.75c-2.824,2.831-5.134,7.72-5.134,10.864s2.313,3.403,5.141,0.575l1.21-1.211
					c2.828-2.828,5.142-2.528,5.142,0.665c0,3.193-2.314,8.119-5.142,10.947l-12.642,12.643c-2.827,2.828-5.141,1.87-5.141-2.129
					v-8.445c0-3.999-2.319-4.962-5.153-2.142l-1.243,1.236c-2.834,2.82-5.153,8.399-5.153,12.398v8.445
					c0,3.999-2.313,9.583-5.141,12.411l-1.211,1.211c-2.827,2.828-5.141,1.87-5.141-2.129v-8.444c0-3.999-2.313-4.957-5.14-2.129
					l-1.21,1.21c-2.828,2.828-5.142,8.413-5.142,12.411v8.445c0,3.998-2.313,9.583-5.141,12.411l-1.209,1.21
					c-2.828,2.828-5.142,5.452-5.142,5.832c0,0.379,0,3.961,0,7.96v7.064c0,3.999,2.313,4.957,5.142,2.129L445.291,81.117
					c2.827-2.828,1.868-5.142-2.13-5.142h-8.439c-3.998,0-7.271-3.272-7.271-7.27V37.042z"/>
			</g>
			<g>
				<path fill="#231F20" d="M444.113,13.43c-2.827,2.828-5.141,8.413-5.141,12.411v42.518c0,3.999,2.313,4.957,5.141,2.129
					l1.209-1.21c2.828-2.828,5.142-8.413,5.142-12.412V14.349c0-3.999-2.313-4.957-5.142-2.129L444.113,13.43z"/>
			</g>
		</g>
	</g>
	<polyline fill="#231F20" points="201.014,133.409 212.506,133.407 212.506,110.422 223.996,110.421 223.996,133.407 
		235.488,133.405 235.488,110.419 247.038,110.477 247.038,133.462 258.53,133.462 258.53,110.476 281.513,110.415 281.513,121.908 
		270.021,121.968 270.021,133.459 281.513,133.459 281.513,156.444 201.014,156.394 201.014,134.79 	"/>
	<g>
		<polygon fill="#231F20" points="258.5,17.596 247.009,17.598 247.009,63.83 235.517,63.861 235.458,40.756 212.476,40.819 
			212.476,52.251 223.967,52.251 223.967,63.863 201.043,63.864 201.043,40.879 189.493,40.822 189.493,63.807 178.001,63.808 
			178.001,40.822 166.51,40.824 166.51,63.809 155.018,63.811 155.018,65.19 155.018,86.796 281.483,86.781 258.5,63.799 		"/>
		<rect x="270.021" y="17.916" fill="#231F20" width="11.492" height="57.058"/>
	</g>
	<path fill="#231F20" d="M200.998,286.772c0,0,9.461,2.029,11.492-0.002v-22.985c1.805-2.235,9.46-2.033,11.491-0.001v22.986
		c1.806,2.234,9.46,2.029,11.492-0.002v-22.985c1.821-2.241,9.514-1.989,11.55,0.058v22.985c1.806,2.235,9.46,2.031,11.492,0
		v-22.986c3.605-4.474,18.915-4.119,22.983-0.061v11.493c-2.026,2.037-10.159,1.954-11.492,0.061v11.492
		c1.427,1.823,9.656,1.77,11.492,0v22.985l-80.5-0.05"/>
	<g>
		<path fill="#231F20" d="M155.003,240.159l126.465-0.015c0.812-5.04-19.873-15.475-22.983-22.982v-46.203
			c-2.031-2.032-9.686-2.233-11.491,0.001v46.232c-2.029,2.034-9.68,2.26-11.492,0.031l-0.06-23.104
			c-4.074-4.051-19.378-4.412-22.983,0.063v11.432c2.032,2.031,10.401,1.865,11.492,0v11.611
			c-4.052,4.052-19.323,4.458-22.924,0.001v-22.985c-2.037-2.047-9.729-2.298-11.55-0.058v22.985
			c-2.031,2.032-9.686,2.236-11.492,0.001v-22.986c-2.032-2.031-9.686-2.232-11.491,0.003v22.984
			c-2.031,2.031-11.492,0.001-11.492,0.001"/>
		<path fill="#231F20" d="M270.006,171.278v57.058c1.806,2.235,9.459,2.031,11.491,0v-57.059
			C279.466,169.246,271.812,169.044,270.006,171.278z"/>
	</g>
	<polyline fill="#231F20" points="124.836,487.112 141.089,487.112 157.343,470.859 173.594,470.858 157.341,487.111 
		173.593,487.11 189.847,470.856 206.14,470.898 189.887,487.151 206.14,487.15 222.392,470.896 254.939,470.852 246.812,478.98 
		230.518,479.022 222.392,487.148 238.644,487.148 222.391,503.4 108.584,503.366 123.861,488.088 	"/>
	<g>
		<polygon fill="#231F20" points="255.356,437.89 288.027,405.221 271.775,405.221 239.084,437.913 222.811,437.934 
			239.063,421.597 206.517,421.641 198.434,429.726 214.685,429.725 206.475,437.935 174.054,437.937 190.308,421.683 
			174.014,421.643 157.761,437.896 141.508,437.896 157.761,421.643 141.509,421.645 125.255,437.899 109.003,437.899 
			108.027,438.875 92.75,454.152 271.608,454.142 255.357,437.89 		"/>
		<polygon fill="#231F20" points="304.094,405.446 263.748,445.792 280,445.792 320.346,405.445 		"/>
	</g>
</g>
</svg>
