<?xml version="1.0" encoding="utf-8"?>
<!DOCTYPE svg PUBLIC "-//W3C//DTD SVG 1.1//EN" "http://www.w3.org/Graphics/SVG/1.1/DTD/svg11.dtd">
<svg version="1.1" xmlns="http://www.w3.org/2000/svg" xmlns:xlink="http://www.w3.org/1999/xlink" x="0px" y="0px"
	 width="353.572px" height="353.09px" viewBox="33.148 60.985 353.572 353.09"
	 enable-background="new 33.148 60.985 353.572 353.09" xml:space="preserve">
<g>
	<g>
		<path fill="#F8EF2A" d="M33.148,414.075V60.985h353.572l-0.241,352.85L33.148,414.075z"/>
		<path d="M57.39,354.364l0.042-40.095h20.026l11.215,54.266l12.078-54.266h20.026l0.042,40.095l0.042,40.095h-13.521v-26.008
			c0-15.699-0.057-26.107-0.156-26.25c-0.127-0.197-0.184-0.155-0.325,0.213l-11.456,52.061H81.896l-11.3-53.587l-0.057,53.587
			H57.345L57.39,354.364z M125.586,383.725c0,0,0.227-1.824,0.311-2.361c0.227-1.344,0.509-3.479,0.665-5.049
			c0.071-0.722,0.212-1.627,0.311-2.037c0.099-0.396,0.17-1.02,0.17-1.372s0.113-1.272,0.24-2.036c0.269-1.57,0.58-3.805,0.75-5.389
			c0.057-0.58,0.198-1.642,0.311-2.361c0.368-2.532,0.538-3.69,0.679-4.937c0.084-0.692,0.254-2.094,0.396-3.125
			c0.141-1.032,0.325-2.532,0.41-3.338c0.084-0.808,0.24-1.769,0.325-2.149c0.085-0.381,0.169-0.962,0.169-1.302
			c0-0.339,0.099-1.272,0.241-2.079c0.127-0.807,0.354-2.361,0.495-3.422c0.142-1.075,0.34-2.461,0.438-3.099
			c0.099-0.622,0.227-1.683,0.297-2.361c0.071-0.68,0.212-1.739,0.297-2.361c0.099-0.622,0.283-1.98,0.424-3.013
			c0.127-1.032,0.325-2.461,0.424-3.168c0.099-0.722,0.24-1.854,0.325-2.531s0.254-2.065,0.396-3.098
			c0.142-1.033,0.325-2.489,0.41-3.254c0.085-0.764,0.226-1.865,0.325-2.445c0.17-1.032,0.198-2.179,0.566-3.126
			c8.076-0.254,13.224-0.127,22.473-0.1c0.212,1.357,0.424,2.759,0.58,4.115c0.071,0.722,0.212,1.839,0.325,2.489
			c0.113,0.649,0.254,1.711,0.368,2.362c0.113,0.649,0.241,1.725,0.311,2.403c0.17,1.527,0.453,3.69,0.665,4.964
			c0.085,0.537,0.226,1.599,0.311,2.361c0.142,1.302,0.297,2.518,0.905,6.916c0.141,0.99,0.325,2.489,0.41,3.338
			c0.084,0.849,0.226,1.754,0.325,2.022c0.085,0.255,0.155,0.764,0.155,1.132c0,0.367,0.099,1.356,0.227,2.22
			c0.212,1.472,0.453,3.112,1.004,7.213c0.127,0.962,0.34,2.546,0.481,3.508c0.127,0.962,0.283,2.079,0.325,2.489
			s0.184,1.499,0.312,2.446c0.127,0.934,0.354,2.631,0.509,3.748c0.142,1.117,0.382,2.843,0.509,3.833
			c0.142,0.99,0.283,2.079,0.325,2.445c0.113,1.006,0.523,4.089,0.721,5.46c0.099,0.68,0.241,1.866,0.326,2.658
			c0.084,0.792,0.226,1.711,0.311,2.037c0.085,0.325,0.169,0.876,0.169,1.216c0,0.341,0.113,1.329,0.241,2.192l0.876,6.703h-13.407
			l-2.602-16.773c0,0-6.322-0.154-11.71-0.154l-2.942,16.929l-13.28-0.028L125.586,383.725z M300.76,354.364l0.043-40.095
			l10.904-0.043c7.269-0.028,11.369,0.015,12.289,0.142c0.765,0.101,1.896,0.24,2.531,0.325c1.287,0.17,2.716,0.495,3.396,0.778
			c0.254,0.099,0.552,0.184,0.664,0.184c0.396,0,2.856,1.23,4.072,2.037c0.962,0.636,2.729,2.433,3.438,3.507
			c1.047,1.57,1.74,3.366,2.277,5.869c0.396,1.854,0.382,20.465-0.015,21.809c-0.255,0.892-0.623,1.796-0.904,2.291
			c-0.071,0.143-0.214,0.396-0.283,0.595c-0.255,0.595-1.952,2.306-2.956,2.998c-1.159,0.793-2.673,1.627-2.956,1.627
			c-0.112,0-0.382,0.1-0.622,0.212c-0.227,0.112-0.608,0.27-0.862,0.325c-0.255,0.057-0.438,0.17-0.438,0.255
			c0,0.184,0.877,0.819,1.117,0.819c0.312,0,2.912,1.43,3.805,2.079c0.947,0.707,2.673,2.489,2.913,3.026
			c0.085,0.184,0.34,0.665,0.552,1.061c0.212,0.396,0.41,0.85,0.41,0.99s0.113,0.552,0.24,0.863
			c0.212,0.509,0.239,2.503,0.239,14.51v13.931H327.59l-0.015-12.912c0-7.1-0.07-13.236-0.155-13.634
			c-0.282-1.471-0.383-1.726-0.934-2.56c-0.623-0.947-1.569-1.6-2.983-2.051c-0.778-0.256-1.43-0.283-5.205-0.24l-4.313,0.042
			l-0.085,31.354h-13.194L300.76,354.364z M228.589,360.305c0-26.362-0.043-34.213-0.197-34.367
			c-0.143-0.143-1.712-0.198-6.025-0.198h-5.826v-11.568l37.21,0.084l0.043,5.657c0.026,3.111,0.026,5.672,0,5.7
			c-0.028,0.014-2.717,0.07-5.983,0.127l-5.798,0.085l-0.228,68.635h-13.195V360.305L228.589,360.305z M184.378,360.305
			c0-26.362-0.042-34.213-0.198-34.367c-0.141-0.143-1.711-0.198-6.025-0.198h-5.827v-11.568l37.21,0.084v11.569h-11.894
			l-0.042,34.324l-0.042,34.325h-13.196L184.378,360.305z M260.707,354.364l0.043-40.095h33.222l0.042,5.374
			c0.028,2.956,0,5.544-0.042,5.742l-0.085,0.366h-9.815c-7.411,0-9.872,0.043-10.013,0.198c-0.156,0.143-0.198,2.886-0.198,11.314
			c0,10.818,0.015,11.115,0.313,11.285c0.196,0.113,3.14,0.171,8.386,0.171h8.076v11.397h-7.963c-4.78,0-8.133,0.071-8.388,0.156
			l-0.424,0.155v11.131c0,10.563,0.015,11.145,0.297,11.397c0.27,0.241,1.26,0.27,10.057,0.313l9.759,0.042l0.085,11.159h-33.393
			L260.707,354.364z M150.549,364.095c-0.014-0.99-0.099-2.164-0.198-2.604c-0.169-0.849-0.424-3.068-0.679-5.911
			c-0.085-0.92-0.184-1.74-0.24-1.825c-0.057-0.084-0.17-0.946-0.255-1.908c-0.085-0.961-0.226-2.276-0.311-2.899
			c-0.339-2.404-0.552-4.129-0.665-5.459c-0.113-1.287-0.227-2.22-0.665-5.374c-0.085-0.679-0.24-1.924-0.325-2.771
			c-0.622-5.897-0.905-7.707-1.188-7.608c-0.099,0.028-0.226,0.607-0.269,1.271c-0.085,1.16-0.212,2.107-0.735,5.855
			c-0.127,0.934-0.241,2.037-0.241,2.447c0,0.409-0.071,1.031-0.155,1.398c-0.085,0.368-0.241,1.429-0.34,2.362
			c-0.283,2.673-0.862,7.722-1.4,12.205c-0.127,1.117-0.297,2.659-0.382,3.423s-0.212,1.938-0.311,2.603
			c-0.453,3.111-0.75,6.096-0.623,6.436c0.085,0.212,0.651,0.24,4.54,0.212l4.441-0.042L150.549,364.095L150.549,364.095z
			 M324.364,350.928c1.089-0.537,2.065-1.43,2.434-2.222c0.679-1.471,0.692-1.739,0.692-10.098c0-8.203,0-8.273-0.607-10.014
			c-0.17-0.51-1.824-2.191-2.137-2.191c-0.099,0-0.396-0.128-0.663-0.283c-0.426-0.24-1.133-0.283-5.093-0.34
			c-3.423-0.042-4.667-0.014-4.837,0.142c-0.198,0.171-0.239,1.967-0.239,12.688c0,9.771,0.041,12.53,0.196,12.7
			c0.156,0.154,1.217,0.197,4.768,0.154l4.554-0.057L324.364,350.928z"/>
	</g>
</g>
<g id="Calque_2">
	<g>
		<path d="M237.01,93.011c-0.044-2.282-0.107-3.364-0.202-3.701c-0.862-3.113-1.287-4.146-2.404-5.876
			c-1.202-1.862-3.521-3.855-5.587-4.801c-1.598-0.727-4.794-1.644-6.194-1.774c-0.495-0.043-1.513-0.16-2.276-0.262
			c-0.906-0.116-5.205-0.16-12.22-0.131l-10.833,0.043l-0.043,41.251l-0.028,41.207l12.177-0.058
			c6.902-0.043,12.701-0.131,13.394-0.233c2.22-0.305,4.116-0.902,6.591-2.064c0.184-0.088,0.551-0.306,0.82-0.48
			c0.269-0.175,0.637-0.393,0.82-0.48c0.438-0.189,2.475-2.24,3.111-3.112c0.637-0.873,1.442-2.255,1.57-2.677
			c0.042-0.189,0.282-0.872,0.508-1.513c0.227-0.64,0.41-1.367,0.425-1.585s0.113-0.786,0.255-1.237
			C237.078,144.881,237.01,93.011,237.01,93.011z M223.684,143.273c-0.693,2.371-1.952,3.418-4.654,3.927
			c-1.598,0.305-8.146,0.334-8.442,0.044c-0.155-0.161-0.198-2.983-0.198-11.724v-11.52l0.014-23.957V88.496l0.396-0.102
			c0.227-0.044,2.404-0.072,4.852-0.029c3.789,0.058,4.525,0.102,4.936,0.35c0.269,0.16,0.565,0.291,0.65,0.291
			c0.24,0,1.259,0.975,1.768,1.688c0.423,0.587,0.652,1.065,0.776,2.319C223.78,93.011,223.842,142.743,223.684,143.273z"/>
		<path d="M186.139,81.536c-1.498-1.598-4.709-3.408-7.057-3.988c-0.311-0.071-0.877-0.213-1.259-0.312
			c-0.382-0.098-1.005-0.254-1.386-0.339c-0.383-0.085-1.896-0.24-3.366-0.339c-4.767-0.311-9.957,0.213-12.36,1.259
			c-0.299,0.127-0.652,0.226-0.765,0.226c-0.113,0-0.424,0.114-0.679,0.241c-0.254,0.127-0.764,0.368-1.117,0.537
			c-1.796,0.835-3.975,2.674-5.063,4.286c-0.438,0.65-1.287,2.319-1.697,3.323c-0.27,0.665-0.82,1.471-1.004,2.857
			c-0.227,1.372-0.127,5.459-0.127,28.413c0,22.728,0.027,26.249,0.254,27.678c0.537,3.423,1.047,6.633,4.355,9.009
			c0.665,0.65,1.273,1.188,1.33,1.188c0.07,0,0.382,0.128,0.636,0.382c1.755,1.74,5.361,2.489,8.656,2.871
			c1.442,0.169,7.949,0.169,9.349,0.014c1.853-0.227,4.582-0.821,5.373-1.16c0.228-0.099,0.623-0.269,0.893-0.382
			c4.115-1.683,7.099-4.936,8.273-9.051c0.579-2.022,0.678-2.885,0.678-5.94l0.029-45.938l0.041-2.856
			c0.043-2.9-0.07-3.862-0.734-6.195C188.799,85.269,187.539,83.035,186.139,81.536z M177.045,95.009c0,0-0.084,45.335-0.084,46.311
			c0,3.621-1.09,5.205-4.229,6.138c-0.99,0.298-4.059,0.255-5.233-0.07c-1.075-0.297-1.979-0.848-2.659-1.612
			c-1.457-1.626-1.386-0.17-1.386-27.946c0-24.678,0.028-25.655,0.622-26.914v-0.004c0.396-0.821,1.471-1.909,2.234-2.263
			c1.896-0.877,4.414-1.075,6.449-0.509c3.111,0.863,4.285,2.914,4.285,6.563C177.045,94.741,177.045,94.849,177.045,95.009z"/>
		<path d="M139.155,81.525c-1.498-1.598-4.709-3.408-7.057-3.988c-0.311-0.071-0.877-0.213-1.259-0.312
			c-0.382-0.098-1.005-0.254-1.386-0.339c-0.383-0.085-1.896-0.24-3.366-0.339c-4.767-0.311-9.957,0.213-12.36,1.259
			c-0.299,0.127-0.652,0.226-0.765,0.226c-0.113,0-0.424,0.114-0.679,0.241c-0.254,0.127-0.764,0.368-1.117,0.537
			c-1.796,0.835-3.975,2.674-5.063,4.286c-0.438,0.65-1.287,2.319-1.697,3.323c-0.27,0.665-0.82,1.471-1.004,2.857
			c-0.227,1.372-0.127,5.459-0.127,28.413c0,22.728,0.027,26.249,0.254,27.678c0.537,3.423,1.047,6.633,4.355,9.009
			c0.665,0.65,1.273,1.188,1.33,1.188c0.07,0,0.382,0.128,0.636,0.382c1.755,1.74,5.361,2.489,8.656,2.871
			c1.442,0.169,7.949,0.169,9.349,0.014c1.853-0.227,4.582-0.821,5.373-1.16c0.228-0.099,0.623-0.269,0.893-0.382
			c4.115-1.683,7.099-4.936,8.273-9.051c0.579-2.022,0.678-2.885,0.678-5.94l0.029-45.938l0.041-2.856
			c0.043-2.9-0.07-3.862-0.734-6.195C141.815,85.258,140.555,83.023,139.155,81.525z M130.061,94.998c0,0-0.084,45.335-0.084,46.311
			c0,3.621-1.09,5.205-4.229,6.138c-0.99,0.298-4.059,0.255-5.233-0.07c-1.075-0.297-1.979-0.848-2.659-1.612
			c-1.457-1.626-1.386-0.17-1.386-27.946c0-24.678,0.028-25.655,0.622-26.914v-0.004c0.396-0.821,1.471-1.909,2.234-2.263
			c1.896-0.877,4.414-1.075,6.449-0.509c3.111,0.863,4.285,2.914,4.285,6.563C130.061,94.729,130.061,94.838,130.061,94.998z"/>
		<path d="M83.079,95.709H96.13l0.031-2.194c0.043-2.9-0.07-3.862-0.734-6.195c-0.594-2.051-1.854-4.285-3.254-5.784
			c-1.498-1.598-4.709-3.408-7.057-3.988c-0.311-0.071-0.877-0.213-1.259-0.312c-0.382-0.098-1.005-0.254-1.386-0.339
			c-0.383-0.085-1.896-0.24-3.366-0.339c-4.767-0.311-9.957,0.213-12.36,1.259c-0.299,0.127-0.652,0.226-0.765,0.226
			c-0.113,0-0.424,0.114-0.679,0.241c-0.254,0.127-0.764,0.368-1.117,0.537c-1.796,0.835-3.975,2.674-5.063,4.286
			c-0.438,0.65-1.287,2.319-1.697,3.323c-0.27,0.665-0.82,1.471-1.004,2.857c-0.227,1.372-0.127,5.459-0.127,28.413
			c0,22.728,0.027,26.249,0.254,27.678c0.537,3.423,1.047,6.633,4.355,9.009c0.665,0.65,1.273,1.188,1.33,1.188
			c0.07,0,0.382,0.128,0.636,0.382c1.755,1.74,5.361,2.489,8.656,2.871c1.442,0.169,7.949,0.169,9.349,0.014
			c1.853-0.227,4.582-0.821,5.373-1.16c0.228-0.099,0.623-0.269,0.893-0.382c4.115-1.683,7.099-4.936,8.273-9.051
			c0.579-2.022,0.678-2.885,0.678-5.94l0.01-15.656l0.02-0.163c0.051-0.367,0.066-9.849,0.023-10.556l-0.027-0.454H73.929
			l-0.027,0.329c-0.047,0.556-0.031,10.239,0.016,10.644l0.043,0.366h9.061c-0.014,7.843-0.025,14.143-0.025,14.5
			c0,3.621-1.09,5.205-4.229,6.138c-0.99,0.298-4.059,0.255-5.233-0.07c-1.075-0.297-1.979-0.848-2.659-1.612
			c-1.457-1.626-1.386-0.17-1.386-27.946c0-24.678,0.028-25.655,0.622-26.914v-0.004c0.396-0.821,1.471-1.909,2.234-2.263
			c1.896-0.877,4.414-1.075,6.449-0.509c3.111,0.863,4.285,2.914,4.285,6.563c0,0.038,0,0.146,0,0.306
			C83.08,95.009,83.08,95.258,83.079,95.709z"/>
	</g>
	<g>
		<path d="M56.272,285.856h246.04v-98.689H56.272V285.856z M245.608,233.859l0.043-40.375h7.871h12.088h0.066l2.854,13.938
			l8.381,40.024l0.057-53.962h13.195l-0.043,40.391l-0.043,40.375h-7.871h-12.088h-0.066l-2.852-13.938l-8.383-40.024l-0.057,53.962
			h-13.195L245.608,233.859z M202.983,206.042c0.184-1.353,0.734-2.139,1.004-2.789c0.41-0.979,1.259-2.608,1.697-3.243
			c1.088-1.572,3.267-3.367,5.063-4.182c0.354-0.166,0.863-0.401,1.117-0.524c0.255-0.124,0.565-0.235,0.679-0.235
			c0.112,0,0.466-0.097,0.765-0.22c2.403-1.021,7.594-1.532,12.36-1.228c1.471,0.096,2.983,0.248,3.366,0.331
			c0.381,0.083,1.004,0.235,1.386,0.33c0.382,0.097,0.948,0.236,1.259,0.305c2.348,0.566,5.559,2.333,7.057,3.892
			c1.4,1.462,2.66,3.642,3.254,5.644c0.664,2.276,0.777,3.215,0.734,6.045l-0.031,2.141H229.64c0.001-0.44,0.001-0.684,0.001-0.684
			c0-0.156,0-0.261,0-0.298c0-3.561-1.174-5.562-4.285-6.404c-2.035-0.553-4.554-0.359-6.449,0.497
			c-0.764,0.346-1.838,1.407-2.234,2.208v0.004c-0.594,1.228-0.622,2.182-0.622,26.263c0,27.104-0.071,25.683,1.386,27.27
			c0.68,0.745,1.584,1.283,2.659,1.572c1.175,0.317,4.243,0.36,5.233,0.069c3.139-0.91,4.229-2.457,4.229-5.989
			c0-0.349,0.012-6.497,0.025-14.15h-9.061l-0.043-0.357c-0.047-0.394-0.063-9.843-0.016-10.386l0.027-0.321h22.188l0.027,0.443
			c0.043,0.69,0.027,9.942-0.023,10.3l-0.02,0.159l-0.01,15.277c0,2.98-0.099,3.823-0.678,5.796
			c-1.175,4.015-4.158,7.189-8.273,8.832c-0.27,0.111-0.665,0.276-0.893,0.373c-0.791,0.331-3.521,0.91-5.373,1.131
			c-1.399,0.152-7.906,0.152-9.349-0.013c-3.295-0.373-6.901-1.104-8.656-2.801c-0.254-0.249-0.565-0.373-0.636-0.373
			c-0.057,0-0.665-0.525-1.33-1.16c-3.309-2.318-3.818-5.451-4.355-8.791c-0.227-1.395-0.254-4.83-0.254-27.008
			C202.856,211.368,202.756,207.38,202.983,206.042z M187.297,193.853l0.41-0.155c0.453-0.17,11.3-0.227,11.923-0.057l0.368,0.1
			v80.373l-0.509,0.1c-0.792,0.154-11.413,0.099-11.824-0.085l-0.368-0.143V193.853z M171.869,254.194
			c-0.057-2.688-0.326-4.893-0.623-5.205c-0.07-0.084-0.141-0.268-0.141-0.395c0-0.326-1.047-2.348-1.697-3.281
			c-1.074-1.57-3.197-3.848-4.781-5.162c-0.408-0.354-0.904-0.764-1.088-0.92c-0.41-0.354-3.211-2.348-4.738-3.381
			c-0.594-0.395-1.16-0.805-1.273-0.891c-0.111-0.084-0.594-0.48-1.088-0.863c-1.203-0.947-3.168-2.855-3.945-3.859
			c-0.354-0.453-0.836-1.062-1.076-1.373c-0.438-0.565-1.98-3.055-1.98-3.21c0-0.085-0.578-1.428-0.791-1.853
			c-0.141-0.269-0.537-1.584-0.904-2.928c-0.426-1.542-0.51-3.026-0.51-7.892c0-6.096,0.24-7.723,1.484-10.607
			c0.127-0.283,0.227-0.551,0.227-0.607c0-0.143,1.004-1.74,1.387-2.221c0.764-0.947,2.389-2.461,3.252-3.013
			c1.627-1.032,2.264-1.315,5.063-2.192c0.877-0.283,2.547-0.509,4.951-0.693c2.602-0.197,6.053-0.014,8.076,0.425
			c2.898,0.622,2.588,0.523,3.803,1.132c0.297,0.141,0.637,0.269,0.75,0.269c0.367,0,3.111,1.909,3.875,2.716
			c1.43,1.471,2.15,2.588,3.055,4.695c0.779,1.811,1.146,3.974,1.26,7.552c0.084,2.772,0.07,3.338-0.127,3.465
			c-0.256,0.17-11.697,0.212-12.107,0.057c-0.211-0.085-0.254-0.396-0.254-1.696c0-1.84-0.367-3.734-0.906-4.583
			c-0.451-0.707-1.471-1.584-2.021-1.712c-0.227-0.057-0.51-0.184-0.637-0.282c-0.141-0.113-1.074-0.17-2.518-0.17
			c-1.852,0-2.391,0.057-2.785,0.283c-0.27,0.155-0.58,0.282-0.693,0.282c-0.467,0-1.754,1.542-2.121,2.561
			c-0.354,0.976-0.369,1.188-0.313,4.964c0.057,3.86,0.143,4.61,0.693,5.911c0.453,1.062,0.82,1.797,1.02,2.009
			c0.113,0.128,0.197,0.312,0.197,0.438c0,0.113,0.057,0.24,0.127,0.269c0.057,0.028,0.396,0.467,0.736,0.962
			c1.344,1.951,4.979,5.304,7.877,7.241c0.791,0.537,1.471,1.018,1.5,1.09c0.027,0.07,0.127,0.127,0.211,0.127
			c0.354,0,3.592,2.615,5.119,4.143c1.457,1.443,3.395,3.791,3.707,4.484c0.055,0.141,0.254,0.467,0.424,0.734
			c0.947,1.471,1.908,4.004,2.545,6.676c0.27,1.146,0.297,1.98,0.297,7.086c0,4.936-0.043,5.953-0.283,7
			c-0.311,1.287-0.707,2.631-0.934,3.168c-0.664,1.543-0.918,2.037-1.471,2.83c-0.975,1.441-2.516,2.926-3.818,3.719
			c-1.344,0.807-2.574,1.33-4.723,1.994c-0.637,0.197-2.305,0.494-3.748,0.664s-5.826,0.156-7.354,0
			c-1.98-0.24-4.768-0.861-5.035-1.131c-0.086-0.084-0.27-0.156-0.396-0.156c-0.311,0-2.178-0.904-3.111-1.512
			c-0.41-0.27-1.357-1.117-2.121-1.896c-1.117-1.145-1.527-1.711-2.15-2.955c-1.555-3.154-1.867-4.582-2.021-9.236
			c-0.057-2.092-0.029-2.871,0.113-3.055c0.168-0.211,1.117-0.24,6.264-0.24c5.389,0,6.082,0.029,6.168,0.256
			c0.057,0.141,0.098,1.117,0.098,2.162c0,1.896,0.297,3.311,0.793,3.805c0.098,0.1,0.184,0.24,0.184,0.313
			c0,0.254,0.65,0.791,1.584,1.314c0.934,0.51,0.947,0.523,3.295,0.523c2.094,0,2.447-0.043,3.111-0.354
			C171.302,260.799,171.982,259.088,171.869,254.194z M111.006,233.912l0.043-40.094h33.223l0.041,5.373
			c0.029,2.957,0,5.545-0.041,5.742l-0.086,0.367h-9.814c-7.412,0-9.873,0.043-10.014,0.199c-0.156,0.141-0.197,2.885-0.197,11.314
			c0,10.818,0.014,11.115,0.311,11.285c0.197,0.113,3.141,0.17,8.387,0.17h8.076v11.398h-7.963c-4.781,0-8.133,0.072-8.387,0.156
			l-0.424,0.156v11.131c0,10.564,0.014,11.145,0.297,11.398c0.268,0.24,1.258,0.268,10.055,0.311l9.76,0.043l0.084,11.158h-33.391
			L111.006,233.912z M68.359,233.967l0.043-40.457l10.833-0.042c7.015-0.029,11.313,0.013,12.22,0.128
			c0.764,0.099,1.781,0.214,2.276,0.256c1.4,0.128,4.597,1.027,6.194,1.739c2.065,0.928,4.385,2.883,5.587,4.708
			c1.117,1.697,1.542,2.711,2.404,5.764c0.095,0.331,0.158,1.391,0.202,3.63c0,0,0.068,50.87-0.117,51.504
			c-0.142,0.443-0.24,1-0.255,1.213c-0.015,0.214-0.198,0.927-0.425,1.555c-0.226,0.628-0.466,1.299-0.508,1.483
			c-0.128,0.414-0.934,1.769-1.57,2.625c-0.637,0.856-2.674,2.868-3.111,3.053c-0.184,0.085-0.552,0.299-0.82,0.47
			c-0.27,0.172-0.637,0.385-0.82,0.471c-2.475,1.141-4.371,1.726-6.591,2.024c-0.692,0.102-6.491,0.187-13.394,0.23l-12.177,0.056
			L68.359,233.967z"/>
		<path d="M90.138,262.84c2.702-0.5,3.961-1.526,4.654-3.852c0.158-0.521,0.097-49.293,0.097-49.293
			c-0.124-1.23-0.354-1.7-0.776-2.276c-0.509-0.698-1.527-1.655-1.768-1.655c-0.085,0-0.382-0.128-0.65-0.284
			c-0.41-0.243-1.146-0.286-4.936-0.343c-2.447-0.042-4.625-0.014-4.852,0.029l-0.396,0.101v11.326l-0.014,23.495v11.299
			c0,8.572,0.043,11.34,0.198,11.498C81.993,263.168,88.541,263.139,90.138,262.84z"/>
	</g>
</g>
</svg>
