<?xml version="1.0" encoding="utf-8"?>
<!DOCTYPE svg PUBLIC "-//W3C//DTD SVG 1.1//EN" "http://www.w3.org/Graphics/SVG/1.1/DTD/svg11.dtd">
<svg version="1.1" id="Calque_1" xmlns="http://www.w3.org/2000/svg" xmlns:xlink="http://www.w3.org/1999/xlink" x="0px" y="0px"
	 width="367.804px" height="353.09px" viewBox="486.149 56.318 367.804 353.09"
	 enable-background="new 486.149 56.318 367.804 353.09" xml:space="preserve">
<g>
	<g>
		<path fill="#F8EF2A" d="M486.148,409.408V56.318h367.933l-0.25,352.85L486.148,409.408z"/>
		<path d="M510.39,349.697l0.041-40.096h20.025l11.215,54.266l12.078-54.266h20.027l0.041,40.096l0.043,40.094H560.34v-26.008
			c0-15.699-0.057-26.107-0.156-26.25c-0.127-0.197-0.184-0.154-0.324,0.213l-11.457,52.061h-13.506l-11.301-53.586l-0.057,53.586
			h-13.193L510.39,349.697z M578.586,379.057c0,0,0.227-1.822,0.311-2.359c0.227-1.346,0.51-3.48,0.666-5.049
			c0.07-0.723,0.211-1.629,0.311-2.037c0.1-0.396,0.17-1.021,0.17-1.373s0.113-1.271,0.24-2.035c0.268-1.57,0.58-3.805,0.75-5.389
			c0.057-0.58,0.197-1.643,0.311-2.361c0.367-2.533,0.537-3.691,0.68-4.938c0.084-0.691,0.254-2.094,0.395-3.125
			c0.143-1.031,0.326-2.531,0.41-3.338c0.084-0.809,0.24-1.77,0.326-2.148c0.084-0.381,0.168-0.963,0.168-1.303
			s0.1-1.271,0.242-2.078c0.127-0.809,0.354-2.361,0.494-3.424c0.143-1.074,0.34-2.461,0.438-3.098
			c0.1-0.623,0.229-1.684,0.297-2.361c0.072-0.68,0.213-1.738,0.297-2.361c0.1-0.621,0.283-1.98,0.426-3.014
			c0.127-1.031,0.324-2.461,0.424-3.168c0.098-0.721,0.24-1.854,0.324-2.529c0.086-0.678,0.254-2.066,0.396-3.1
			c0.141-1.033,0.324-2.488,0.41-3.254c0.084-0.764,0.225-1.865,0.324-2.445c0.17-1.031,0.197-2.178,0.566-3.125
			c8.076-0.254,13.225-0.127,22.473-0.1c0.213,1.357,0.424,2.758,0.58,4.115c0.07,0.721,0.213,1.838,0.324,2.488
			c0.113,0.648,0.254,1.711,0.369,2.361c0.113,0.65,0.24,1.727,0.311,2.404c0.17,1.527,0.453,3.689,0.666,4.963
			c0.084,0.537,0.225,1.6,0.311,2.361c0.141,1.303,0.297,2.518,0.904,6.916c0.141,0.99,0.326,2.488,0.41,3.338
			s0.227,1.754,0.324,2.021c0.086,0.256,0.156,0.766,0.156,1.133s0.1,1.355,0.227,2.221c0.213,1.471,0.453,3.111,1.004,7.213
			c0.127,0.961,0.34,2.545,0.48,3.508c0.127,0.961,0.283,2.078,0.326,2.488c0.041,0.41,0.184,1.5,0.313,2.447
			c0.127,0.934,0.354,2.631,0.508,3.746c0.143,1.117,0.383,2.844,0.51,3.834c0.141,0.99,0.283,2.078,0.324,2.445
			c0.113,1.006,0.523,4.088,0.721,5.459c0.1,0.682,0.242,1.867,0.326,2.658c0.084,0.793,0.227,1.711,0.311,2.037
			c0.086,0.326,0.17,0.877,0.17,1.217s0.113,1.328,0.24,2.191l0.877,6.703h-13.408l-2.602-16.773c0,0-6.322-0.154-11.709-0.154
			l-2.943,16.93l-13.279-0.027L578.586,379.057z M753.76,349.697l0.043-40.096l10.904-0.043c7.27-0.027,11.369,0.016,12.289,0.143
			c0.766,0.1,1.896,0.24,2.531,0.324c1.287,0.17,2.715,0.496,3.395,0.777c0.254,0.1,0.553,0.186,0.664,0.186
			c0.396,0,2.857,1.229,4.072,2.037c0.963,0.635,2.73,2.432,3.439,3.506c1.047,1.57,1.738,3.367,2.275,5.869
			c0.396,1.854,0.383,20.465-0.014,21.809c-0.256,0.893-0.623,1.797-0.904,2.291c-0.072,0.143-0.215,0.396-0.283,0.596
			c-0.256,0.596-1.951,2.307-2.957,2.998c-1.158,0.793-2.672,1.627-2.955,1.627c-0.111,0-0.383,0.1-0.621,0.211
			c-0.229,0.113-0.609,0.271-0.863,0.326c-0.254,0.057-0.438,0.17-0.438,0.254c0,0.186,0.877,0.82,1.117,0.82
			c0.313,0,2.912,1.43,3.805,2.078c0.947,0.707,2.674,2.49,2.912,3.025c0.086,0.186,0.342,0.666,0.553,1.063
			c0.213,0.395,0.41,0.85,0.41,0.99c0,0.139,0.113,0.551,0.24,0.861c0.211,0.51,0.238,2.504,0.238,14.512v13.93H780.59
			l-0.016-12.912c0-7.1-0.07-13.236-0.154-13.633c-0.281-1.471-0.383-1.727-0.934-2.561c-0.623-0.947-1.57-1.6-2.984-2.051
			c-0.777-0.256-1.43-0.283-5.205-0.24l-4.313,0.043l-0.084,31.354h-13.195L753.76,349.697z M681.588,355.637
			c0-26.361-0.043-34.213-0.195-34.367c-0.145-0.143-1.713-0.197-6.025-0.197h-5.826v-11.568l37.209,0.084l0.043,5.658
			c0.027,3.111,0.027,5.672,0,5.699c-0.027,0.014-2.717,0.07-5.982,0.127l-5.797,0.086l-0.229,68.635H681.59v-34.156H681.588z
			 M637.377,355.637c0-26.361-0.041-34.213-0.197-34.367c-0.141-0.143-1.711-0.197-6.025-0.197h-5.826v-11.568l37.209,0.084v11.57
			h-11.893l-0.043,34.324l-0.041,34.324h-13.197L637.377,355.637z M713.707,349.697l0.043-40.096h33.223l0.041,5.373
			c0.027,2.957,0,5.545-0.041,5.742l-0.086,0.367h-9.814c-7.412,0-9.873,0.043-10.014,0.197c-0.156,0.143-0.197,2.887-0.197,11.314
			c0,10.818,0.014,11.115,0.313,11.285c0.195,0.113,3.141,0.17,8.387,0.17h8.074v11.398h-7.963c-4.779,0-8.133,0.07-8.387,0.156
			l-0.424,0.154v11.131c0,10.563,0.014,11.145,0.297,11.396c0.27,0.242,1.26,0.27,10.057,0.313l9.76,0.043l0.084,11.158h-33.393
			L713.707,349.697z M603.549,359.428c-0.014-0.99-0.1-2.164-0.197-2.604c-0.17-0.85-0.426-3.068-0.68-5.912
			c-0.086-0.92-0.184-1.74-0.24-1.824s-0.17-0.947-0.256-1.908c-0.084-0.961-0.225-2.275-0.311-2.898
			c-0.338-2.404-0.551-4.129-0.664-5.459c-0.113-1.287-0.227-2.221-0.666-5.375c-0.084-0.68-0.24-1.924-0.324-2.771
			c-0.623-5.896-0.904-7.707-1.188-7.607c-0.1,0.027-0.227,0.607-0.27,1.271c-0.086,1.16-0.213,2.107-0.734,5.855
			c-0.127,0.934-0.242,2.037-0.242,2.445c0,0.41-0.07,1.031-0.154,1.398c-0.086,0.369-0.242,1.43-0.34,2.363
			c-0.283,2.672-0.863,7.721-1.4,12.205c-0.127,1.115-0.297,2.658-0.383,3.422c-0.084,0.764-0.211,1.938-0.311,2.604
			c-0.453,3.111-0.75,6.096-0.623,6.436c0.086,0.213,0.65,0.24,4.541,0.213l4.439-0.043L603.549,359.428L603.549,359.428z
			 M777.363,346.26c1.09-0.537,2.066-1.43,2.434-2.221c0.68-1.471,0.693-1.74,0.693-10.098c0-8.203,0-8.273-0.607-10.016
			c-0.17-0.51-1.824-2.189-2.137-2.189c-0.1,0-0.396-0.129-0.664-0.283c-0.426-0.24-1.133-0.283-5.092-0.34
			c-3.424-0.043-4.668-0.016-4.838,0.141c-0.197,0.172-0.238,1.967-0.238,12.689c0,9.77,0.041,12.529,0.195,12.699
			c0.156,0.154,1.217,0.197,4.768,0.154l4.555-0.057L777.363,346.26z"/>
	</g>
</g>
<g id="Calque_2">
	<g>
		<path d="M690.01,88.344c-0.045-2.281-0.107-3.363-0.201-3.7c-0.863-3.113-1.287-4.146-2.404-5.876
			c-1.203-1.862-3.521-3.855-5.588-4.802c-1.598-0.727-4.793-1.644-6.193-1.773c-0.496-0.043-1.514-0.16-2.275-0.262
			c-0.906-0.116-5.205-0.16-12.221-0.132l-10.834,0.043l-0.043,41.251l-0.027,41.207l12.178-0.057
			c6.9-0.043,12.701-0.131,13.393-0.234c2.221-0.305,4.117-0.9,6.592-2.063c0.184-0.088,0.551-0.307,0.82-0.48
			c0.27-0.176,0.637-0.393,0.82-0.48c0.438-0.189,2.475-2.24,3.109-3.111c0.639-0.873,1.443-2.256,1.57-2.678
			c0.043-0.189,0.283-0.871,0.508-1.512c0.229-0.641,0.41-1.368,0.426-1.586s0.113-0.785,0.256-1.236
			C690.078,140.213,690.01,88.344,690.01,88.344z M676.683,138.606c-0.693,2.371-1.951,3.418-4.654,3.928
			c-1.598,0.305-8.146,0.334-8.441,0.043c-0.154-0.16-0.197-2.983-0.197-11.723v-11.521l0.014-23.957V83.829l0.395-0.102
			c0.229-0.044,2.404-0.072,4.854-0.029c3.789,0.058,4.523,0.102,4.936,0.35c0.27,0.16,0.564,0.291,0.65,0.291
			c0.24,0,1.258,0.976,1.768,1.688c0.424,0.587,0.652,1.064,0.775,2.319C676.779,88.344,676.842,138.077,676.683,138.606z"/>
		<path d="M639.138,76.869c-1.498-1.598-4.709-3.408-7.057-3.988c-0.311-0.07-0.877-0.213-1.26-0.312
			c-0.381-0.098-1.004-0.254-1.385-0.339c-0.383-0.085-1.896-0.24-3.367-0.339c-4.766-0.312-9.957,0.213-12.359,1.259
			c-0.299,0.127-0.652,0.226-0.766,0.226s-0.424,0.114-0.678,0.241s-0.766,0.368-1.117,0.537c-1.797,0.835-3.977,2.674-5.064,4.286
			c-0.438,0.649-1.287,2.318-1.695,3.323c-0.271,0.665-0.82,1.471-1.006,2.856c-0.227,1.372-0.127,5.459-0.127,28.414
			c0,22.728,0.027,26.248,0.256,27.677c0.535,3.422,1.047,6.633,4.354,9.01c0.666,0.648,1.273,1.188,1.33,1.188
			c0.07,0,0.383,0.127,0.637,0.381c1.754,1.74,5.361,2.49,8.656,2.871c1.441,0.17,7.949,0.17,9.348,0.014
			c1.854-0.227,4.582-0.82,5.373-1.158c0.229-0.1,0.623-0.27,0.895-0.383c4.115-1.684,7.098-4.936,8.271-9.051
			c0.58-2.022,0.68-2.885,0.68-5.94l0.027-45.939l0.041-2.855c0.043-2.9-0.068-3.862-0.732-6.195
			C641.799,80.603,640.539,78.368,639.138,76.869z M630.045,90.342c0,0-0.084,45.334-0.084,46.311c0,3.621-1.09,5.205-4.229,6.139
			c-0.99,0.297-4.061,0.254-5.234-0.07c-1.074-0.297-1.979-0.848-2.658-1.612c-1.457-1.627-1.387-0.17-1.387-27.947
			c0-24.678,0.029-25.655,0.623-26.914v-0.004c0.396-0.821,1.471-1.909,2.234-2.263c1.895-0.877,4.414-1.075,6.447-0.509
			c3.111,0.862,4.285,2.914,4.285,6.563C630.045,90.074,630.045,90.183,630.045,90.342z"/>
		<path d="M592.154,76.858c-1.498-1.599-4.709-3.408-7.057-3.988c-0.311-0.071-0.877-0.213-1.26-0.312
			c-0.381-0.099-1.004-0.254-1.385-0.34c-0.383-0.085-1.896-0.239-3.367-0.339c-4.766-0.311-9.957,0.213-12.359,1.26
			c-0.299,0.127-0.652,0.226-0.766,0.226c-0.111,0-0.424,0.114-0.678,0.241s-0.764,0.368-1.117,0.537
			c-1.797,0.835-3.975,2.674-5.063,4.286c-0.439,0.649-1.287,2.318-1.697,3.322c-0.27,0.665-0.82,1.472-1.004,2.857
			c-0.229,1.372-0.127,5.459-0.127,28.413c0,22.728,0.025,26.25,0.254,27.677c0.537,3.424,1.047,6.633,4.354,9.01
			c0.666,0.65,1.273,1.188,1.33,1.188c0.07,0,0.383,0.129,0.637,0.383c1.756,1.74,5.361,2.488,8.656,2.871
			c1.441,0.168,7.949,0.168,9.35,0.014c1.852-0.227,4.582-0.82,5.373-1.16c0.227-0.1,0.623-0.27,0.893-0.383
			c4.115-1.682,7.1-4.936,8.273-9.051c0.578-2.022,0.678-2.885,0.678-5.94l0.029-45.938l0.041-2.856
			c0.043-2.899-0.07-3.861-0.734-6.194C594.814,80.591,593.554,78.356,592.154,76.858z M583.06,90.331
			c0,0-0.084,45.335-0.084,46.312c0,3.621-1.09,5.205-4.229,6.137c-0.99,0.299-4.059,0.256-5.232-0.07
			c-1.076-0.297-1.98-0.848-2.66-1.612c-1.457-1.625-1.385-0.17-1.385-27.945c0-24.679,0.027-25.656,0.621-26.915v-0.004
			c0.396-0.821,1.471-1.909,2.234-2.263c1.896-0.878,4.414-1.075,6.449-0.51c3.111,0.863,4.285,2.914,4.285,6.563
			C583.06,90.063,583.06,90.171,583.06,90.331z"/>
		<path d="M536.078,91.042h13.051l0.031-2.193c0.043-2.9-0.07-3.862-0.734-6.195c-0.594-2.051-1.854-4.285-3.254-5.784
			c-1.498-1.598-4.709-3.408-7.057-3.988c-0.311-0.07-0.877-0.213-1.258-0.312c-0.383-0.098-1.006-0.254-1.387-0.339
			c-0.383-0.085-1.896-0.24-3.365-0.339c-4.768-0.312-9.957,0.213-12.361,1.259c-0.299,0.127-0.652,0.226-0.764,0.226
			c-0.113,0-0.424,0.114-0.68,0.241c-0.254,0.127-0.764,0.368-1.117,0.537c-1.795,0.835-3.975,2.674-5.063,4.286
			c-0.438,0.649-1.287,2.318-1.697,3.323c-0.27,0.665-0.82,1.471-1.004,2.856c-0.227,1.372-0.127,5.459-0.127,28.414
			c0,22.728,0.027,26.248,0.254,27.677c0.537,3.422,1.047,6.633,4.355,9.01c0.664,0.648,1.271,1.188,1.33,1.188
			c0.068,0,0.381,0.127,0.635,0.381c1.756,1.74,5.361,2.49,8.656,2.871c1.441,0.17,7.949,0.17,9.35,0.014
			c1.854-0.227,4.582-0.82,5.373-1.158c0.229-0.1,0.623-0.27,0.893-0.383c4.115-1.684,7.1-4.936,8.273-9.051
			c0.578-2.022,0.678-2.885,0.678-5.94l0.01-15.656l0.02-0.164c0.051-0.367,0.066-9.848,0.023-10.556l-0.027-0.454h-22.186
			l-0.027,0.329c-0.047,0.556-0.031,10.239,0.016,10.644l0.043,0.367h9.061c-0.014,7.842-0.025,14.142-0.025,14.5
			c0,3.621-1.09,5.205-4.229,6.137c-0.99,0.299-4.059,0.256-5.232-0.068c-1.076-0.299-1.979-0.85-2.66-1.614
			c-1.457-1.625-1.385-0.17-1.385-27.945c0-24.679,0.027-25.656,0.621-26.915v-0.004c0.396-0.821,1.471-1.909,2.234-2.263
			c1.896-0.877,4.414-1.075,6.449-0.509c3.111,0.862,4.285,2.914,4.285,6.563c0,0.038,0,0.146,0,0.306
			C536.08,90.342,536.08,90.591,536.078,91.042z"/>
	</g>
	<g>
		<path d="M509.271,281.188h246.041V182.5H509.271V281.188z M698.607,229.191l0.043-40.375h7.871h12.088h0.066l2.854,13.938
			l8.381,40.023l0.059-53.961h13.193l-0.043,40.391l-0.043,40.375h-7.871h-12.088h-0.064l-2.854-13.938l-8.383-40.023l-0.057,53.961
			h-13.195L698.607,229.191z M655.982,201.375c0.184-1.354,0.734-2.141,1.004-2.789c0.41-0.98,1.26-2.609,1.697-3.244
			c1.088-1.572,3.268-3.367,5.063-4.182c0.355-0.166,0.863-0.4,1.117-0.523c0.256-0.125,0.566-0.236,0.68-0.236
			c0.111,0,0.465-0.096,0.766-0.219c2.402-1.021,7.594-1.533,12.359-1.229c1.471,0.096,2.982,0.248,3.365,0.332
			c0.381,0.082,1.004,0.234,1.387,0.33s0.947,0.234,1.26,0.305c2.348,0.564,5.559,2.332,7.057,3.891
			c1.4,1.463,2.66,3.643,3.254,5.645c0.664,2.275,0.777,3.215,0.734,6.045l-0.031,2.141H682.64c0-0.439,0-0.684,0-0.684
			c0-0.156,0-0.262,0-0.297c0-3.563-1.174-5.563-4.285-6.404c-2.035-0.553-4.555-0.359-6.449,0.496
			c-0.764,0.346-1.838,1.408-2.234,2.209v0.004c-0.594,1.227-0.621,2.182-0.621,26.262c0,27.105-0.07,25.684,1.387,27.271
			c0.68,0.744,1.584,1.281,2.658,1.57c1.176,0.318,4.242,0.361,5.232,0.07c3.139-0.91,4.23-2.457,4.23-5.99
			c0-0.348,0.012-6.496,0.023-14.148h-9.061l-0.043-0.357c-0.047-0.395-0.063-9.844-0.016-10.387l0.027-0.32h22.188l0.027,0.443
			c0.043,0.689,0.027,9.941-0.023,10.299l-0.02,0.16l-0.01,15.275c0,2.98-0.1,3.824-0.678,5.797
			c-1.176,4.016-4.158,7.189-8.273,8.832c-0.27,0.111-0.666,0.275-0.893,0.373c-0.791,0.33-3.521,0.91-5.373,1.131
			c-1.4,0.152-7.906,0.152-9.35-0.014c-3.295-0.373-6.9-1.104-8.656-2.801c-0.254-0.248-0.564-0.373-0.637-0.373
			c-0.057,0-0.664-0.523-1.33-1.16c-3.309-2.316-3.816-5.451-4.354-8.791c-0.229-1.395-0.254-4.83-0.254-27.008
			C655.855,206.701,655.756,202.713,655.982,201.375z M640.297,189.186l0.41-0.154c0.453-0.172,11.299-0.229,11.922-0.059
			l0.369,0.102v80.373l-0.51,0.1c-0.791,0.154-11.412,0.098-11.824-0.086l-0.367-0.143V189.186z M624.869,249.525
			c-0.057-2.688-0.326-4.893-0.623-5.203c-0.07-0.086-0.141-0.27-0.141-0.396c0-0.326-1.047-2.348-1.697-3.281
			c-1.074-1.568-3.197-3.848-4.781-5.162c-0.408-0.354-0.904-0.764-1.088-0.92c-0.41-0.354-3.211-2.348-4.738-3.381
			c-0.594-0.395-1.16-0.805-1.273-0.891c-0.111-0.084-0.594-0.48-1.088-0.863c-1.203-0.947-3.168-2.854-3.945-3.859
			c-0.354-0.451-0.836-1.061-1.076-1.373c-0.438-0.564-1.979-3.055-1.979-3.209c0-0.086-0.578-1.428-0.791-1.854
			c-0.143-0.268-0.537-1.584-0.904-2.928c-0.426-1.541-0.51-3.025-0.51-7.893c0-6.096,0.24-7.723,1.482-10.605
			c0.127-0.283,0.229-0.551,0.229-0.607c0-0.143,1.004-1.74,1.387-2.221c0.764-0.947,2.389-2.461,3.252-3.014
			c1.627-1.031,2.264-1.314,5.063-2.191c0.877-0.283,2.547-0.51,4.951-0.693c2.602-0.197,6.053-0.014,8.076,0.426
			c2.898,0.621,2.588,0.521,3.803,1.131c0.297,0.141,0.637,0.27,0.75,0.27c0.367,0,3.111,1.908,3.875,2.715
			c1.43,1.473,2.15,2.588,3.055,4.695c0.779,1.813,1.146,3.975,1.26,7.553c0.084,2.771,0.07,3.338-0.127,3.465
			c-0.256,0.17-11.697,0.213-12.105,0.057c-0.211-0.084-0.254-0.396-0.254-1.695c0-1.84-0.367-3.734-0.906-4.584
			c-0.451-0.707-1.473-1.584-2.021-1.711c-0.227-0.057-0.51-0.184-0.637-0.283c-0.141-0.111-1.074-0.17-2.518-0.17
			c-1.854,0-2.393,0.059-2.785,0.283c-0.271,0.156-0.58,0.283-0.693,0.283c-0.467,0-1.754,1.541-2.121,2.561
			c-0.354,0.977-0.369,1.188-0.313,4.963c0.057,3.861,0.143,4.611,0.691,5.912c0.453,1.063,0.82,1.797,1.021,2.008
			c0.111,0.129,0.195,0.313,0.195,0.439c0,0.113,0.059,0.24,0.129,0.268c0.057,0.029,0.395,0.469,0.734,0.963
			c1.344,1.951,4.98,5.305,7.877,7.24c0.791,0.537,1.473,1.02,1.5,1.09s0.127,0.127,0.211,0.127c0.355,0,3.594,2.615,5.119,4.145
			c1.457,1.443,3.396,3.791,3.707,4.484c0.055,0.141,0.254,0.467,0.424,0.732c0.947,1.471,1.908,4.004,2.545,6.676
			c0.271,1.146,0.299,1.98,0.299,7.086c0,4.938-0.045,5.953-0.283,7c-0.313,1.287-0.707,2.633-0.936,3.168
			c-0.664,1.543-0.918,2.037-1.471,2.83c-0.975,1.441-2.516,2.928-3.818,3.721c-1.344,0.807-2.572,1.328-4.723,1.992
			c-0.637,0.197-2.305,0.494-3.748,0.664s-5.826,0.156-7.354,0c-1.98-0.238-4.768-0.859-5.035-1.131
			c-0.086-0.084-0.27-0.156-0.396-0.156c-0.311,0-2.178-0.902-3.109-1.512c-0.41-0.27-1.357-1.117-2.121-1.895
			c-1.117-1.146-1.527-1.711-2.15-2.955c-1.555-3.154-1.867-4.582-2.021-9.236c-0.057-2.092-0.029-2.871,0.113-3.055
			c0.168-0.211,1.117-0.24,6.264-0.24c5.389,0,6.082,0.029,6.168,0.256c0.057,0.141,0.098,1.117,0.098,2.162
			c0,1.896,0.297,3.311,0.793,3.805c0.098,0.1,0.184,0.24,0.184,0.313c0,0.254,0.65,0.791,1.584,1.314
			c0.936,0.51,0.947,0.523,3.297,0.523c2.094,0,2.445-0.043,3.109-0.355C624.301,256.131,624.982,254.42,624.869,249.525z
			 M564.006,229.244l0.043-40.094h33.223l0.041,5.373c0.029,2.957,0,5.545-0.041,5.742l-0.086,0.367h-9.814
			c-7.412,0-9.873,0.043-10.014,0.199c-0.156,0.141-0.197,2.885-0.197,11.313c0,10.818,0.014,11.115,0.313,11.285
			c0.195,0.113,3.141,0.17,8.387,0.17h8.076v11.398h-7.963c-4.781,0-8.135,0.072-8.389,0.156l-0.424,0.156v11.131
			c0,10.564,0.014,11.145,0.297,11.398c0.27,0.24,1.258,0.268,10.057,0.311l9.76,0.043l0.084,11.158h-33.393L564.006,229.244z
			 M521.359,229.299l0.043-40.457l10.832-0.041c7.016-0.029,11.313,0.012,12.221,0.127c0.764,0.1,1.781,0.215,2.275,0.256
			c1.4,0.129,4.598,1.027,6.193,1.74c2.066,0.928,4.387,2.883,5.588,4.707c1.117,1.697,1.543,2.711,2.404,5.764
			c0.096,0.332,0.158,1.393,0.201,3.631c0,0,0.068,50.869-0.117,51.504c-0.141,0.443-0.238,1-0.254,1.213
			c-0.016,0.215-0.199,0.928-0.426,1.555c-0.225,0.629-0.465,1.299-0.508,1.484c-0.127,0.412-0.934,1.768-1.57,2.625
			c-0.637,0.855-2.674,2.867-3.111,3.053c-0.184,0.084-0.551,0.299-0.818,0.469c-0.271,0.172-0.639,0.385-0.82,0.471
			c-2.475,1.143-4.371,1.727-6.592,2.025c-0.691,0.102-6.49,0.186-13.395,0.229l-12.176,0.057L521.359,229.299z"/>
		<path d="M543.138,258.172c2.701-0.5,3.961-1.525,4.652-3.852c0.158-0.521,0.098-49.293,0.098-49.293
			c-0.123-1.23-0.354-1.699-0.775-2.275c-0.51-0.699-1.527-1.656-1.768-1.656c-0.086,0-0.383-0.127-0.65-0.283
			c-0.41-0.244-1.146-0.287-4.938-0.344c-2.445-0.041-4.625-0.014-4.852,0.029l-0.395,0.102v11.326l-0.016,23.494v11.299
			c0,8.572,0.043,11.34,0.199,11.498C534.992,258.5,541.541,258.471,543.138,258.172z"/>
	</g>
</g>
<path d="M814.123,321.811c0.113,0,0.424-0.127,0.693-0.283c0.396-0.227,0.934-0.283,2.785-0.283c1.443,0,2.377,0.059,2.518,0.172
	c0.129,0.098,0.41,0.225,0.637,0.281c0.553,0.127,1.57,1.004,2.023,1.711c0.537,0.85,0.904,2.744,0.904,4.584
	c0,1.301,0.043,1.611,0.256,1.697c0.41,0.156,11.852,0.113,12.105-0.057c0.197-0.127,0.211-0.693,0.127-3.465
	c-0.113-3.578-0.48-5.742-1.26-7.553c-0.904-2.107-1.625-3.225-3.055-4.695c-0.764-0.807-3.508-2.715-3.875-2.715
	c-0.113,0-0.453-0.127-0.75-0.27c-1.215-0.607-0.904-0.508-3.803-1.131c-2.023-0.438-5.477-0.621-8.076-0.424
	c-2.404,0.184-4.074,0.41-4.951,0.693c-2.799,0.877-3.438,1.16-5.063,2.191c-0.863,0.551-2.488,2.064-3.254,3.012
	c-0.381,0.482-1.385,2.08-1.385,2.221c0,0.059-0.1,0.326-0.227,0.609c-1.246,2.885-1.486,4.512-1.486,10.607
	c0,4.863,0.086,6.35,0.51,7.891c0.367,1.344,0.764,2.66,0.904,2.928c0.213,0.426,0.793,1.77,0.793,1.854
	c0,0.156,1.541,2.645,1.98,3.211c0.238,0.311,0.721,0.918,1.074,1.371c0.777,1.004,2.744,2.912,3.945,3.859
	c0.496,0.383,0.977,0.779,1.09,0.863c0.113,0.086,0.678,0.496,1.271,0.891c1.527,1.033,4.328,3.027,4.738,3.381
	c0.184,0.156,0.68,0.566,1.09,0.92c1.584,1.314,3.705,3.592,4.779,5.162c0.65,0.934,1.697,2.955,1.697,3.281
	c0,0.127,0.07,0.311,0.141,0.396c0.299,0.311,0.566,2.518,0.623,5.205c0.113,4.895-0.564,6.604-3.041,7.791
	c-0.664,0.313-1.018,0.355-3.111,0.355c-2.348,0-2.361-0.016-3.295-0.523c-0.934-0.523-1.584-1.061-1.584-1.314
	c0-0.072-0.084-0.213-0.184-0.313c-0.496-0.496-0.793-1.908-0.793-3.807c0-1.045-0.041-2.02-0.098-2.162
	c-0.086-0.227-0.779-0.256-6.168-0.256c-5.148,0-6.096,0.029-6.266,0.24c-0.141,0.184-0.17,0.963-0.111,3.055
	c0.154,4.654,0.467,6.084,2.021,9.236c0.623,1.246,1.033,1.811,2.15,2.957c0.764,0.777,1.711,1.627,2.121,1.895
	c0.934,0.607,2.801,1.514,3.109,1.514c0.127,0,0.313,0.07,0.396,0.156c0.27,0.27,3.055,0.891,5.035,1.131
	c1.531,0.154,5.916,0.168,7.357-0.002c1.443-0.17,3.111-0.467,3.748-0.664c2.148-0.664,3.379-1.188,4.725-1.992
	c1.301-0.793,2.842-2.277,3.816-3.721c0.553-0.793,0.807-1.287,1.471-2.83c0.229-0.535,0.623-1.881,0.936-3.168
	c0.238-1.047,0.281-2.063,0.281-7.002c0-5.104-0.027-5.938-0.297-7.084c-0.637-2.674-1.598-5.205-2.545-6.676
	c-0.17-0.27-0.369-0.594-0.424-0.734c-0.313-0.693-2.25-3.041-3.707-4.484c-1.525-1.527-4.766-4.145-5.119-4.145
	c-0.084,0-0.184-0.057-0.211-0.127c-0.029-0.07-0.709-0.551-1.5-1.09c-2.898-1.936-6.533-5.287-7.877-7.24
	c-0.34-0.494-0.68-0.934-0.736-0.961c-0.07-0.029-0.127-0.156-0.127-0.27c0-0.127-0.084-0.311-0.197-0.438
	c-0.199-0.213-0.566-0.947-1.02-2.01c-0.551-1.301-0.637-2.051-0.691-5.91c-0.059-3.777-0.043-3.988,0.311-4.965
	C812.369,323.354,813.656,321.811,814.123,321.811z"/>
</svg>
