<?xml version="1.0" encoding="utf-8"?>
<!DOCTYPE svg PUBLIC "-//W3C//DTD SVG 1.1//EN" "http://www.w3.org/Graphics/SVG/1.1/DTD/svg11.dtd">
<svg version="1.1" id="Calque_1" xmlns="http://www.w3.org/2000/svg" xmlns:xlink="http://www.w3.org/1999/xlink" x="0px" y="0px"
	 width="665.021px" height="52.385px" viewBox="0 0 665.021 52.385" enable-background="new 0 0 665.021 52.385"
	 xml:space="preserve">
<g>
	<path d="M467.549,26.192c0,0,3.085-0.144,8.485-0.396c5.399-0.223,13.113-0.512,22.37-0.748
		c4.628-0.125,9.643-0.259,14.946-0.344c5.303-0.098,10.896-0.222,16.681-0.27c5.786-0.052,11.764-0.164,17.838-0.172
		c6.075-0.023,12.246-0.046,18.417-0.07c6.171,0.023,12.342,0.045,18.417,0.068c6.075,0.001,12.053,0.119,17.838,0.17
		c5.785,0.049,11.378,0.168,16.681,0.268c5.304,0.086,10.317,0.218,14.946,0.345c9.256,0.235,16.97,0.526,22.37,0.75
		c5.4,0.253,8.485,0.398,8.485,0.398s-3.085,0.145-8.485,0.398c-5.399,0.224-13.113,0.516-22.37,0.75
		c-4.628,0.127-9.642,0.258-14.946,0.345c-5.303,0.1-10.896,0.219-16.681,0.268c-5.786,0.051-11.764,0.169-17.838,0.17
		c-6.075,0.022-12.246,0.045-18.417,0.068c-6.171-0.023-12.342-0.047-18.417-0.07c-6.075-0.008-12.053-0.12-17.838-0.172
		c-5.785-0.048-11.378-0.172-16.681-0.27c-5.303-0.085-10.317-0.22-14.946-0.344c-9.256-0.235-16.97-0.524-22.37-0.748
		C470.634,26.336,467.549,26.192,467.549,26.192z"/>
</g>
<g>
	<path d="M466.033,14.624c-0.958,0.753-2.316,1.813-3.925,2.99c-0.804,0.589-1.672,1.207-2.585,1.831
		c-0.911,0.628-1.872,1.253-2.857,1.877c-1.973,1.245-4.057,2.451-6.123,3.526c-2.068,1.084-4.116,2.038-6.019,2.88
		c-0.953,0.42-1.865,0.816-2.73,1.177c-0.863,0.364-1.675,0.7-2.421,1.008c-1.491,0.619-2.717,1.137-3.567,1.521
		c-0.444,0.198-0.784,0.359-1.009,0.471c-5.126,0.652-10.252,0.486-15.378-0.132c0.232,0.027,0.606,0.062,1.096,0.082
		c0.853,0.037,2.043,0.024,3.419-0.139c0.688-0.081,1.423-0.196,2.188-0.356c0.765-0.163,1.563-0.36,2.374-0.61
		c1.624-0.495,3.302-1.188,4.938-2.036c1.633-0.85,3.224-1.857,4.664-2.953c0.722-0.544,1.402-1.115,2.044-1.677
		c0.638-0.565,1.23-1.135,1.768-1.682c1.074-1.096,1.924-2.118,2.5-2.869c0.578-0.751,0.879-1.23,0.879-1.23
		c0-0.001-0.515,0.182-1.368,0.529c-0.853,0.347-2.044,0.849-3.421,1.446c-0.687,0.3-1.422,0.622-2.189,0.96
		c-0.763,0.342-1.563,0.69-2.374,1.057c-1.622,0.729-3.3,1.503-4.934,2.277c-1.632,0.778-3.222,1.554-4.661,2.324
		c-0.722,0.383-1.402,0.769-2.044,1.138c-0.636,0.372-1.229,0.736-1.768,1.084c-1.073,0.697-1.925,1.336-2.501,1.816
		c-0.579,0.479-0.881,0.801-0.881,0.801s0.011,0.001,0.029,0.005c-4.853-0.6-9.706-1.598-14.559-2.696
		c0.073-0.042,0.149-0.085,0.231-0.134c0.522-0.31,1.219-0.795,1.969-1.46c0.749-0.666,1.552-1.506,2.321-2.495
		c0.773-0.983,1.505-2.119,2.168-3.319c0.657-1.204,1.24-2.477,1.703-3.744c0.464-1.264,0.813-2.52,1.05-3.648
		c0.238-1.128,0.36-2.132,0.414-2.862c0.056-0.729,0.039-1.185,0.039-1.185s-0.345,0.154-0.865,0.491
		c-0.523,0.333-1.222,0.846-1.973,1.53c-0.749,0.685-1.553,1.538-2.321,2.527c-0.771,0.985-1.502,2.112-2.162,3.3
		c-0.655,1.193-1.237,2.446-1.698,3.694c-0.465,1.247-0.812,2.485-1.05,3.601c-0.238,1.114-0.363,2.109-0.417,2.835
		c-0.023,0.29-0.033,0.533-0.039,0.724c-5.676-1.294-11.354-2.702-17.03-3.734c0.021-0.028,0.042-0.053,0.065-0.083
		c0.361-0.48,0.828-1.19,1.292-2.096c0.463-0.906,0.93-2.002,1.329-3.234c0.403-1.229,0.734-2.598,0.989-4.01
		c0.249-1.416,0.42-2.878,0.487-4.304c0.072-1.423,0.045-2.807-0.043-4.033c-0.089-1.225-0.243-2.294-0.388-3.063
		c-0.142-0.767-0.273-1.236-0.273-1.236s-0.26,0.238-0.62,0.71c-0.363,0.471-0.832,1.176-1.295,2.08
		c-0.465,0.903-0.93,2.006-1.33,3.246c-0.401,1.236-0.731,2.615-0.982,4.037c-0.247,1.425-0.417,2.895-0.483,4.323
		c-0.07,1.426-0.043,2.81,0.045,4.032c0.088,1.221,0.241,2.283,0.384,3.047c0.03,0.167,0.061,0.316,0.089,0.453
		c-6.192-1.088-12.382-1.705-18.574-1.212c0.057-0.13,0.12-0.28,0.187-0.452c0.248-0.632,0.551-1.54,0.817-2.642
		c0.267-1.101,0.501-2.395,0.651-3.796c0.154-1.401,0.22-2.91,0.207-4.434c-0.018-1.521-0.117-3.059-0.302-4.514
		c-0.183-1.454-0.446-2.826-0.741-4.008c-0.293-1.182-0.619-2.177-0.884-2.877C367.324,0.405,367.121,0,367.121,0
		c0,0-0.195,0.357-0.441,0.995c-0.249,0.637-0.555,1.557-0.821,2.672c-0.269,1.115-0.502,2.427-0.651,3.839
		c-0.153,1.414-0.217,2.929-0.2,4.451c0.021,1.522,0.121,3.051,0.307,4.491c0.183,1.441,0.448,2.795,0.742,3.962
		c0.292,1.17,0.616,2.155,0.879,2.851c0.088,0.237,0.17,0.439,0.24,0.604c-11.555,1.027-23.11,5.973-34.665,18.973
		c0.409,1.298,0.817,2.605,1.227,3.921c11.62-13.095,23.241-18.192,34.861-19.497c0.052,0.061,0.104,0.122,0.162,0.187
		c0.615,0.703,1.518,1.674,2.644,2.803c0.564,0.563,1.183,1.168,1.848,1.802c0.667,0.63,1.375,1.296,2.12,1.975
		c1.49,1.362,3.126,2.791,4.797,4.213c1.673,1.42,3.383,2.831,5.029,4.124c1.643,1.294,3.22,2.471,4.604,3.449
		c1.383,0.978,2.573,1.753,3.421,2.272c0.849,0.522,1.357,0.787,1.357,0.787s-0.327-0.538-0.943-1.411
		c-0.614-0.875-1.515-2.088-2.641-3.463c-1.126-1.377-2.477-2.92-3.969-4.473c-1.491-1.557-3.127-3.12-4.798-4.578
		c-1.675-1.456-3.385-2.809-5.032-3.952c-0.822-0.573-1.629-1.091-2.401-1.561c-0.772-0.468-1.512-0.879-2.204-1.237
		c-0.887-0.457-1.693-0.818-2.383-1.094c5.941-0.493,11.883-0.043,17.823,0.782c0.061,0.088,0.124,0.179,0.192,0.277
		c0.601,0.857,1.482,2.053,2.586,3.433c0.552,0.689,1.159,1.427,1.811,2.195c0.654,0.765,1.349,1.567,2.083,2.38
		c1.464,1.628,3.073,3.309,4.72,4.941c1.647,1.627,3.334,3.204,4.96,4.607c1.622,1.407,3.183,2.646,4.551,3.647
		c1.368,1.002,2.546,1.766,3.39,2.268c0.841,0.505,1.346,0.749,1.346,0.75c0,0-0.318-0.521-0.919-1.375
		c-0.6-0.854-1.48-2.044-2.584-3.419c-1.104-1.375-2.428-2.938-3.895-4.559c-1.465-1.622-3.075-3.3-4.722-4.929
		c-1.651-1.624-3.337-3.201-4.963-4.607c-0.811-0.706-1.61-1.365-2.372-1.982c-0.764-0.613-1.497-1.175-2.18-1.681
		c-0.938-0.692-1.784-1.269-2.496-1.729c4.925,0.734,9.849,1.697,14.774,2.566c0.095,0.125,0.194,0.252,0.306,0.396
		c0.678,0.866,1.669,2.063,2.893,3.417c0.614,0.676,1.284,1.393,2.001,2.128c0.72,0.733,1.483,1.494,2.286,2.251
		c1.6,1.518,3.346,3.034,5.123,4.438c1.779,1.403,3.588,2.692,5.321,3.767c0.865,0.541,1.714,1.022,2.522,1.458
		c0.81,0.432,1.584,0.808,2.305,1.129c1.442,0.644,2.676,1.057,3.553,1.3c0.877,0.245,1.398,0.321,1.398,0.322
		c0,0-0.367-0.421-1.047-1.097c-0.677-0.678-1.666-1.614-2.891-2.701c-0.613-0.542-1.284-1.125-2.002-1.736
		c-0.719-0.606-1.483-1.251-2.285-1.905c-1.602-1.313-3.349-2.691-5.126-4.062c-1.779-1.364-3.589-2.725-5.322-3.962
		c-0.867-0.621-1.715-1.208-2.523-1.762c-0.81-0.552-1.584-1.063-2.305-1.527c-0.959-0.616-1.823-1.141-2.554-1.567
		c4.411,0.756,8.823,1.41,13.234,1.73c0.212,0.177,0.617,0.51,1.194,0.94c0.872,0.655,2.123,1.528,3.636,2.426
		c0.757,0.447,1.579,0.905,2.451,1.346c0.873,0.438,1.795,0.871,2.752,1.266c1.915,0.793,3.968,1.443,6.032,1.878
		c2.063,0.432,4.139,0.642,6.095,0.606c0.978-0.013,1.928-0.095,2.828-0.21c0.902-0.122,1.757-0.291,2.548-0.487
		c1.583-0.395,2.913-0.916,3.848-1.346c0.936-0.429,1.475-0.761,1.475-0.759c0-0.002-0.491-0.082-1.361-0.174
		c-0.871-0.097-2.122-0.216-3.636-0.377c-0.757-0.079-1.579-0.172-2.451-0.279c-0.873-0.102-1.795-0.232-2.752-0.37
		c-1.915-0.278-3.968-0.621-6.032-1.03c-2.065-0.401-4.14-0.869-6.096-1.315c-0.978-0.225-1.928-0.441-2.828-0.654
		c-0.901-0.207-1.757-0.404-2.549-0.582c-1.583-0.355-2.913-0.627-3.847-0.794c-0.002,0-0.005,0-0.006,0
		c4.693,0.267,9.386,0.133,14.08-0.683c0.204,0.046,0.695,0.149,1.407,0.238c0.958,0.12,2.316,0.212,3.925,0.12
		c0.804-0.049,1.672-0.141,2.584-0.292c0.913-0.157,1.872-0.364,2.859-0.648c1.972-0.563,4.056-1.423,6.125-2.558
		c2.067-1.138,4.116-2.554,6.019-4.148c0.952-0.792,1.866-1.634,2.73-2.477c0.863-0.849,1.675-1.707,2.42-2.543
		c1.492-1.673,2.718-3.261,3.569-4.432c0.85-1.17,1.325-1.915,1.325-1.913C467.549,13.434,466.991,13.868,466.033,14.624z"/>
	<path d="M297.846,23.864c0.07-0.164,0.151-0.366,0.24-0.604c0.263-0.696,0.588-1.681,0.879-2.851
		c0.294-1.167,0.559-2.521,0.742-3.962c0.187-1.44,0.287-2.968,0.307-4.491c0.017-1.522-0.047-3.037-0.2-4.451
		c-0.149-1.412-0.382-2.724-0.651-3.839c-0.267-1.116-0.572-2.035-0.821-2.672C298.096,0.357,297.901,0,297.901,0
		c0,0-0.203,0.405-0.464,1.102c-0.265,0.7-0.59,1.695-0.884,2.877c-0.294,1.183-0.558,2.555-0.741,4.008
		c-0.185,1.455-0.284,2.993-0.302,4.514c-0.013,1.524,0.052,3.033,0.207,4.434c0.15,1.401,0.384,2.695,0.651,3.796
		c0.266,1.102,0.569,2.009,0.817,2.642c0.067,0.172,0.13,0.322,0.187,0.452c-6.191-0.493-12.382,0.124-18.574,1.212
		c0.028-0.137,0.059-0.286,0.089-0.453c0.143-0.764,0.295-1.827,0.384-3.047c0.088-1.222,0.115-2.605,0.045-4.032
		c-0.066-1.428-0.236-2.898-0.483-4.323c-0.251-1.422-0.582-2.8-0.982-4.037c-0.4-1.239-0.865-2.342-1.33-3.246
		c-0.464-0.904-0.933-1.608-1.295-2.08c-0.36-0.472-0.62-0.71-0.62-0.71s-0.131,0.469-0.273,1.236
		c-0.145,0.769-0.299,1.838-0.388,3.063c-0.089,1.226-0.116,2.609-0.043,4.033c0.067,1.425,0.238,2.888,0.487,4.304
		c0.255,1.412,0.586,2.781,0.989,4.01c0.399,1.232,0.866,2.329,1.329,3.234c0.463,0.905,0.93,1.616,1.292,2.096
		c0.022,0.03,0.043,0.055,0.065,0.083c-5.676,1.033-11.354,2.44-17.03,3.734c-0.005-0.191-0.016-0.435-0.039-0.724
		c-0.054-0.726-0.179-1.721-0.417-2.835c-0.238-1.115-0.584-2.354-1.05-3.601c-0.46-1.249-1.043-2.501-1.698-3.694
		c-0.66-1.188-1.39-2.314-2.162-3.3c-0.768-0.99-1.572-1.843-2.321-2.527c-0.75-0.684-1.449-1.197-1.973-1.53
		c-0.52-0.337-0.865-0.491-0.865-0.491s-0.017,0.456,0.039,1.185c0.053,0.73,0.176,1.733,0.414,2.862
		c0.236,1.128,0.585,2.384,1.05,3.648c0.463,1.268,1.046,2.54,1.703,3.744c0.663,1.2,1.395,2.336,2.168,3.319
		c0.769,0.988,1.572,1.829,2.321,2.495c0.75,0.666,1.447,1.15,1.969,1.46c0.082,0.049,0.159,0.093,0.231,0.134
		c-4.853,1.098-9.706,2.096-14.559,2.696c0.018-0.003,0.029-0.005,0.029-0.005s-0.302-0.323-0.881-0.801
		c-0.576-0.48-1.428-1.12-2.501-1.816c-0.539-0.348-1.132-0.712-1.768-1.084c-0.642-0.369-1.323-0.755-2.044-1.138
		c-1.439-0.77-3.029-1.546-4.661-2.324c-1.634-0.774-3.312-1.549-4.934-2.277c-0.811-0.367-1.611-0.715-2.374-1.057
		c-0.767-0.338-1.502-0.661-2.189-0.96c-1.377-0.597-2.568-1.1-3.421-1.446c-0.853-0.347-1.368-0.53-1.368-0.529
		c0,0,0.302,0.479,0.879,1.23c0.576,0.751,1.426,1.773,2.5,2.869c0.537,0.546,1.13,1.116,1.768,1.682
		c0.642,0.562,1.322,1.133,2.044,1.677c1.44,1.096,3.031,2.103,4.664,2.953c1.636,0.848,3.314,1.542,4.938,2.036
		c0.811,0.25,1.609,0.447,2.374,0.61c0.765,0.16,1.5,0.275,2.188,0.356c1.376,0.163,2.567,0.176,3.419,0.139
		c0.489-0.02,0.863-0.055,1.096-0.082c-5.126,0.619-10.252,0.785-15.378,0.132c-0.225-0.112-0.565-0.272-1.009-0.471
		c-0.85-0.384-2.077-0.901-3.567-1.521c-0.746-0.308-1.558-0.645-2.421-1.008c-0.865-0.36-1.777-0.756-2.73-1.177
		c-1.902-0.842-3.951-1.796-6.019-2.88c-2.066-1.076-4.15-2.282-6.123-3.526c-0.986-0.625-1.946-1.25-2.857-1.877
		c-0.913-0.624-1.781-1.242-2.585-1.831c-1.609-1.176-2.967-2.236-3.925-2.99c-0.958-0.756-1.516-1.19-1.516-1.188
		c0-0.002,0.475,0.743,1.325,1.913c0.851,1.17,2.077,2.759,3.569,4.432c0.745,0.836,1.557,1.695,2.42,2.543
		c0.864,0.843,1.778,1.685,2.73,2.477c1.902,1.595,3.952,3.011,6.019,4.148c2.068,1.135,4.152,1.996,6.125,2.558
		c0.987,0.284,1.947,0.491,2.859,0.648c0.912,0.151,1.781,0.243,2.584,0.292c1.609,0.093,2.966,0,3.925-0.12
		c0.712-0.089,1.203-0.192,1.407-0.238c4.694,0.815,9.387,0.95,14.08,0.683c-0.001,0-0.004,0-0.006,0
		c-0.934,0.167-2.263,0.438-3.847,0.794c-0.792,0.178-1.648,0.375-2.549,0.582c-0.9,0.213-1.85,0.429-2.828,0.654
		c-1.957,0.446-4.031,0.914-6.096,1.315c-2.064,0.409-4.118,0.751-6.032,1.03c-0.957,0.137-1.879,0.268-2.752,0.37
		c-0.872,0.107-1.693,0.2-2.451,0.279c-1.514,0.161-2.765,0.28-3.636,0.377c-0.87,0.092-1.361,0.172-1.361,0.174
		c0-0.002,0.54,0.33,1.475,0.759c0.935,0.43,2.265,0.951,3.848,1.346c0.791,0.196,1.646,0.365,2.548,0.487
		c0.9,0.115,1.851,0.197,2.828,0.21c1.956,0.036,4.031-0.174,6.095-0.606c2.064-0.435,4.118-1.084,6.032-1.878
		c0.957-0.395,1.879-0.828,2.752-1.266c0.872-0.441,1.694-0.899,2.451-1.346c1.513-0.898,2.764-1.771,3.636-2.426
		c0.578-0.431,0.982-0.764,1.194-0.94c4.412-0.32,8.823-0.974,13.234-1.73c-0.731,0.427-1.594,0.951-2.554,1.567
		c-0.721,0.464-1.495,0.975-2.305,1.527c-0.808,0.554-1.656,1.141-2.523,1.762c-1.733,1.237-3.543,2.598-5.322,3.962
		c-1.777,1.371-3.524,2.749-5.126,4.062c-0.802,0.654-1.565,1.299-2.285,1.905c-0.718,0.611-1.389,1.194-2.002,1.736
		c-1.225,1.087-2.213,2.023-2.891,2.701c-0.68,0.676-1.047,1.097-1.047,1.097c0-0.001,0.521-0.077,1.398-0.322
		c0.877-0.243,2.111-0.656,3.553-1.3c0.721-0.321,1.495-0.697,2.305-1.129c0.808-0.436,1.657-0.917,2.522-1.458
		c1.732-1.075,3.542-2.364,5.321-3.767c1.776-1.404,3.522-2.92,5.123-4.438c0.803-0.758,1.565-1.518,2.286-2.251
		c0.718-0.736,1.387-1.453,2.001-2.128c1.224-1.354,2.215-2.551,2.893-3.417c0.112-0.144,0.211-0.271,0.306-0.396
		c4.925-0.869,9.85-1.832,14.774-2.566c-0.712,0.46-1.558,1.037-2.496,1.729c-0.683,0.506-1.416,1.067-2.18,1.681
		c-0.762,0.617-1.561,1.276-2.372,1.982c-1.625,1.406-3.312,2.983-4.963,4.607c-1.647,1.629-3.257,3.307-4.722,4.929
		c-1.466,1.621-2.791,3.184-3.895,4.559c-1.104,1.375-1.985,2.565-2.584,3.419c-0.601,0.854-0.919,1.375-0.919,1.375
		c0,0,0.505-0.245,1.346-0.75c0.843-0.502,2.021-1.266,3.39-2.268c1.369-1.001,2.929-2.24,4.551-3.647
		c1.625-1.404,3.313-2.98,4.96-4.607c1.646-1.632,3.256-3.313,4.72-4.941c0.734-0.813,1.429-1.615,2.083-2.38
		c0.652-0.768,1.259-1.505,1.811-2.195c1.104-1.38,1.985-2.576,2.586-3.433c0.069-0.098,0.131-0.189,0.192-0.277
		c5.94-0.825,11.882-1.274,17.823-0.782c-0.689,0.276-1.496,0.637-2.383,1.094c-0.691,0.357-1.431,0.769-2.204,1.237
		c-0.771,0.47-1.579,0.988-2.401,1.561c-1.646,1.143-3.356,2.496-5.032,3.952c-1.671,1.458-3.308,3.021-4.798,4.578
		c-1.492,1.553-2.842,3.096-3.969,4.473c-1.126,1.375-2.027,2.588-2.641,3.463c-0.617,0.874-0.943,1.411-0.943,1.411
		s0.508-0.265,1.357-0.787c0.849-0.52,2.039-1.294,3.421-2.272c1.383-0.978,2.96-2.155,4.604-3.449
		c1.646-1.292,3.355-2.704,5.029-4.124c1.67-1.422,3.307-2.851,4.797-4.213c0.745-0.679,1.454-1.345,2.12-1.975
		c0.665-0.633,1.284-1.238,1.848-1.802c1.126-1.128,2.028-2.1,2.644-2.803c0.058-0.065,0.11-0.126,0.162-0.187
		c11.621,1.304,23.242,6.401,34.861,19.497c0.409-1.316,0.817-2.624,1.227-3.921C320.956,29.837,309.401,24.892,297.846,23.864z"/>
</g>
<g>
	<path  d="M197.473,26.192c0,0-3.085,0.144-8.485,0.396c-5.399,0.223-13.113,0.512-22.37,0.748
		c-4.628,0.125-9.643,0.259-14.946,0.344c-5.303,0.098-10.896,0.222-16.681,0.27c-5.786,0.052-11.764,0.164-17.838,0.172
		c-6.075,0.023-12.246,0.046-18.417,0.07c-6.171-0.023-12.342-0.045-18.417-0.068c-6.075-0.001-12.053-0.119-17.838-0.17
		c-5.785-0.049-11.378-0.168-16.681-0.268c-5.304-0.086-10.317-0.218-14.946-0.345c-9.256-0.235-16.97-0.526-22.37-0.75
		C3.085,26.337,0,26.192,0,26.192s3.085-0.145,8.485-0.398c5.399-0.224,13.113-0.516,22.37-0.75
		c4.628-0.127,9.642-0.258,14.946-0.345c5.303-0.1,10.896-0.219,16.681-0.268c5.786-0.051,11.764-0.169,17.838-0.17
		c6.075-0.022,12.246-0.045,18.417-0.068c6.171,0.023,12.342,0.047,18.417,0.07c6.075,0.008,12.053,0.12,17.838,0.172
		c5.785,0.048,11.378,0.172,16.681,0.27c5.303,0.085,10.317,0.22,14.946,0.344c9.256,0.235,16.97,0.524,22.37,0.748
		C194.387,26.048,197.473,26.192,197.473,26.192z"/>
</g>
</svg>
