<?xml version="1.0" encoding="utf-8"?>
<!DOCTYPE svg PUBLIC "-//W3C//DTD SVG 1.1//EN" "http://www.w3.org/Graphics/SVG/1.1/DTD/svg11.dtd">
<svg version="1.1" xmlns="http://www.w3.org/2000/svg" xmlns:xlink="http://www.w3.org/1999/xlink" x="0px" y="0px"
	 width="245.211px" height="209.764px" viewBox="0 0 245.211 209.764" enable-background="new 0 0 245.211 209.764"
	 xml:space="preserve">
<g id="abdulmajidi">
	<g>
		<path fill="#231F20" d="M242.357,177.157h-68.033v-2.834h68.031c1.566,0,2.836-1.27,2.836-2.835v-26.929
			c0-1.565-1.27-2.834-2.836-2.834h-97.795c-1.564,0-2.834,1.269-2.834,2.834v0v26.929v5.677h-2.828v-32.606
			c0-1.565-1.27-2.834-2.836-2.834h-26.928c-1.566,0-2.836,1.269-2.836,2.834v32.607h-2.834v-32.607c0-1.565-1.27-2.834-2.834-2.834
			h-26.93H2.836c-1.566,0-2.836,1.269-2.836,2.834v26.929c0,1.565,1.27,2.835,2.836,2.835h68.031v2.843H2.836
			c-1.566,0-2.834,1.269-2.834,2.834v26.929c0,1.565,1.268,2.835,2.834,2.835h70.867h26.928h35.434c0.002,0,0.004,0,0.006,0h35.426
			c0.029,0,0.055-0.007,0.082-0.008h70.779c1.564,0,2.834-1.27,2.834-2.835v-26.929
			C245.191,178.426,243.922,177.157,242.357,177.157z"/>
		<path fill="#231F20" d="M242.375,0h-26.93c-1.564,0-2.834,1.269-2.834,2.834v133.229c0,1.565,1.27,2.834,2.834,2.834h26.93
			c1.564,0,2.834-1.269,2.834-2.834V2.834C245.209,1.269,243.939,0,242.375,0z"/>
		<path fill="#231F20" d="M2.264,138.84c0.186,0.038,0.375,0.058,0.572,0.058h26.928h9.924h25.51h8.504l0,0h26.93h1.418h69.447
			c1.564,0,2.834-1.27,2.834-2.835v-26.929c0-1.565-1.27-2.834-2.834-2.834h-68.031v-2.834h68.031c1.564,0,2.834-1.27,2.834-2.835
			V73.701c0-1.565-1.27-2.834-2.834-2.834H73.701c-1.566,0-2.836,1.269-2.836,2.834v26.929c0,0.003,0.002,0.006,0.002,0.01v5.66
			h-2.836V73.701c0-1.565-1.27-2.834-2.834-2.834h-26.93c-1.566,0-2.834,1.269-2.834,2.834v32.599H32.6V68.032h68.031
			c0.053,0,0.102-0.013,0.154-0.016h8.184c0.051,0.003,0.1,0.015,0.15,0.015h62.361c1.566,0,2.836-1.269,2.836-2.834V32.599h2.834
			v103.464c0,1.565,1.27,2.834,2.834,2.834h26.93c1.564,0,2.834-1.269,2.834-2.834V29.764V2.835v0c0-0.158-0.021-0.31-0.045-0.46
			c-0.006-0.036-0.004-0.075-0.012-0.11C209.428,0.972,208.283,0,206.914,0h-26.93c-0.002,0-0.004,0-0.004,0h-8.494
			c-0.002,0-0.004,0-0.006,0h-62.361c-1.566,0-2.834,1.269-2.834,2.834v32.583h-2.82V2.834c0-1.565-1.27-2.834-2.834-2.834h-26.93
			H2.836C1.27,0,0,1.269,0,2.834v26.929c0,1.565,1.27,2.835,2.836,2.835h68.031v2.834H2.836C1.27,35.433,0,36.702,0,38.268v0v26.929
			v43.937v26.929v0C0,137.433,0.973,138.576,2.264,138.84z M138.883,32.599h2.836v2.834h-2.836V32.599z"/>
	</g>
</g>
</svg>
