<?xml version="1.0" encoding="utf-8"?>
<!DOCTYPE svg PUBLIC "-//W3C//DTD SVG 1.1//EN" "http://www.w3.org/Graphics/SVG/1.1/DTD/svg11.dtd">
<svg version="1.1" id="olivier" xmlns="http://www.w3.org/2000/svg" xmlns:xlink="http://www.w3.org/1999/xlink" x="0px" y="0px"
	 width="345.981px" height="135px" viewBox="0 0 345.981 135" enable-background="new 0 0 345.981 135" xml:space="preserve" >
<g>
	<g>
		<path d="M85.943,52.429c0.75,2.995,1.582,5.519,2.256,7.302c0.228,0.608,0.436,1.124,0.614,1.548
			C59.209,63.908,29.604,76.579,0,109.887c1.047,3.324,2.094,6.673,3.142,10.048c29.772-33.552,59.545-46.61,89.318-49.953
			c0.135,0.155,0.269,0.31,0.417,0.479c1.575,1.801,3.886,4.291,6.773,7.182c1.445,1.443,3.03,2.993,4.733,4.614
			c1.708,1.615,3.522,3.322,5.433,5.062c3.818,3.489,8.009,7.148,12.289,10.794c4.287,3.635,8.667,7.252,12.883,10.563
			c4.211,3.317,8.253,6.333,11.796,8.838s6.591,4.49,8.767,5.823c2.172,1.337,3.476,2.017,3.476,2.017c0,0-0.839-1.377-2.417-3.615
			c-1.574-2.242-3.883-5.35-6.769-8.876c-2.886-3.526-6.344-7.478-10.168-11.457c-3.82-3.988-8.01-7.992-12.295-11.729
			c-4.291-3.73-8.672-7.195-12.89-10.124c-2.106-1.469-4.176-2.797-6.151-4.002c-1.98-1.198-3.877-2.252-5.646-3.166
			c-2.274-1.171-4.339-2.096-6.106-2.805c15.222-1.262,30.443-0.114,45.665,2.003c0.155,0.226,0.318,0.46,0.493,0.709
			c1.538,2.199,3.796,5.26,6.625,8.796c1.416,1.767,2.97,3.657,4.642,5.625c1.675,1.96,3.458,4.016,5.336,6.098
			c3.751,4.171,7.875,8.478,12.092,12.658c4.224,4.171,8.544,8.208,12.708,11.807c4.158,3.604,8.155,6.778,11.661,9.343
			c3.506,2.569,6.527,4.523,8.685,5.81c2.154,1.293,3.449,1.92,3.449,1.921c0,0-0.815-1.335-2.354-3.521
			c-1.536-2.19-3.793-5.24-6.622-8.763c-2.826-3.521-6.219-7.526-9.978-11.679c-3.753-4.158-7.877-8.454-12.099-12.626
			c-4.228-4.162-8.548-8.201-12.713-11.805c-2.081-1.808-4.125-3.498-6.078-5.077c-1.957-1.572-3.833-3.011-5.585-4.306
			c-2.403-1.773-4.57-3.252-6.395-4.43c12.618,1.883,25.235,4.348,37.853,6.575c0.243,0.316,0.499,0.648,0.786,1.012
			c1.738,2.219,4.274,5.287,7.413,8.755c1.57,1.731,3.289,3.569,5.128,5.455c1.844,1.879,3.8,3.828,5.853,5.768
			c4.102,3.889,8.576,7.771,13.126,11.371c4.558,3.594,9.193,6.897,13.632,9.652c2.217,1.384,4.392,2.619,6.461,3.735
			c2.076,1.105,4.059,2.069,5.905,2.894c3.696,1.646,6.856,2.708,9.105,3.33c2.247,0.628,3.583,0.823,3.583,0.826
			c0-0.001-0.941-1.081-2.682-2.811c-1.738-1.737-4.271-4.136-7.409-6.922c-1.57-1.389-3.289-2.882-5.128-4.447
			c-1.845-1.554-3.8-3.204-5.854-4.88c-4.104-3.364-8.579-6.894-13.133-10.407c-4.559-3.498-9.197-6.981-13.637-10.154
			c-2.219-1.59-4.392-3.094-6.462-4.514c-2.074-1.413-4.059-2.723-5.905-3.911c-2.458-1.578-4.671-2.923-6.544-4.015
			c11.303,1.938,22.606,3.612,33.909,4.432c0.542,0.454,1.582,1.307,3.06,2.412c2.233,1.675,5.438,3.913,9.314,6.214
			c1.939,1.147,4.045,2.316,6.281,3.449c2.235,1.123,4.598,2.232,7.05,3.242c4.904,2.033,10.166,3.698,15.454,4.812
			c5.289,1.104,10.604,1.644,15.616,1.553c2.506-0.037,4.938-0.244,7.246-0.541c2.31-0.311,4.502-0.743,6.529-1.247
			c4.057-1.012,7.464-2.346,9.86-3.448c2.396-1.099,3.78-1.949,3.78-1.944c0-0.004-1.257-0.21-3.49-0.447
			c-2.231-0.249-5.436-0.556-9.313-0.968c-1.939-0.203-4.045-0.439-6.28-0.715c-2.236-0.261-4.598-0.594-7.05-0.945
			c-4.904-0.714-10.167-1.593-15.456-2.641c-5.29-1.026-10.605-2.223-15.619-3.367c-2.506-0.577-4.938-1.129-7.246-1.673
			c-2.31-0.534-4.501-1.037-6.529-1.494c-4.057-0.91-7.462-1.607-9.859-2.033c-0.005-0.001-0.01-0.001-0.015-0.003
			c12.024,0.687,24.049,0.341,36.073-1.747c0.522,0.116,1.78,0.381,3.608,0.607c2.454,0.309,5.933,0.546,10.055,0.308
			c2.061-0.123,4.284-0.359,6.622-0.749c2.337-0.401,4.796-0.932,7.323-1.661c5.057-1.44,10.396-3.644,15.693-6.553
			c5.296-2.913,10.548-6.543,15.421-10.628c2.438-2.031,4.779-4.187,6.994-6.347c2.211-2.171,4.292-4.374,6.204-6.517
			c3.82-4.287,6.959-8.356,9.139-11.355c2.181-2.998,3.398-4.906,3.398-4.9c0-0.007-1.432,1.108-3.884,3.045
			c-2.455,1.929-5.934,4.646-10.057,7.659c-2.062,1.51-4.284,3.092-6.624,4.69c-2.335,1.61-4.794,3.214-7.321,4.813
			c-5.055,3.187-10.395,6.277-15.69,9.034c-5.294,2.778-10.546,5.223-15.419,7.379c-2.438,1.076-4.779,2.091-6.993,3.014
			c-2.211,0.932-4.292,1.795-6.203,2.584c-3.821,1.584-6.962,2.911-9.142,3.894c-1.138,0.509-2.006,0.921-2.583,1.206
			c-25.774,3.282-51.548-1.49-77.322-7.326c0.188-0.104,0.382-0.215,0.594-0.343c1.336-0.793,3.124-2.037,5.042-3.741
			c1.918-1.704,3.978-3.859,5.949-6.39c1.979-2.521,3.857-5.429,5.553-8.505c1.684-3.085,3.18-6.344,4.364-9.591
			c1.192-3.24,2.084-6.457,2.691-9.348c0.609-2.891,0.923-5.462,1.059-7.332c0.143-1.866,0.099-3.035,0.099-3.035
			c0,0-0.886,0.395-2.218,1.256c-1.34,0.855-3.131,2.169-5.052,3.922c-1.921,1.752-3.979,3.939-5.947,6.473
			c-1.977,2.527-3.851,5.414-5.539,8.458c-1.676,3.054-3.17,6.264-4.351,9.464c-1.19,3.193-2.08,6.367-2.69,9.223
			c-0.61,2.856-0.929,5.405-1.068,7.266c-0.057,0.742-0.086,1.366-0.099,1.857c-14.544-3.316-29.088-6.924-43.633-9.568
			c0.055-0.073,0.107-0.14,0.165-0.215c0.927-1.228,2.123-3.048,3.31-5.368s2.381-5.13,3.405-8.286
			c1.032-3.151,1.882-6.656,2.535-10.275c0.639-3.628,1.077-7.374,1.25-11.026c0.184-3.646,0.115-7.191-0.112-10.331
			c-0.228-3.138-0.624-5.877-0.994-7.849c-0.362-1.965-0.702-3.168-0.702-3.168s-0.664,0.61-1.586,1.822
			c-0.931,1.207-2.13,3.011-3.32,5.328c-1.191,2.316-2.383,5.14-3.404,8.315c-1.029,3.169-1.876,6.699-2.52,10.344
			c-0.631,3.652-1.066,7.416-1.236,11.077c-0.18,3.654-0.11,7.198,0.115,10.328c0.225,3.128,0.618,5.85,0.983,7.808
			c0.078,0.427,0.155,0.812,0.229,1.162c-15.862-2.79-31.724-4.369-47.586-3.105c0.145-0.333,0.304-0.717,0.476-1.16
			c0.635-1.621,1.413-3.947,2.096-6.767c0.683-2.821,1.283-6.135,1.669-9.725c0.396-3.589,0.561-7.457,0.527-11.359
			c-0.046-3.902-0.298-7.84-0.773-11.567c-0.466-3.726-1.144-7.24-1.896-10.271c-0.752-3.029-1.588-5.578-2.266-7.369
			c-0.671-1.789-1.19-2.824-1.19-2.825c0,0-0.498,0.915-1.129,2.549c-0.64,1.633-1.42,3.989-2.106,6.847
			c-0.685,2.857-1.286,6.216-1.667,9.838c-0.393,3.62-0.556,7.504-0.514,11.403c0.055,3.899,0.309,7.814,0.788,11.505
			C84.515,45.967,85.193,49.435,85.943,52.429z"/>
		<path d="M234.232,81.395c1.762-0.208,3.647-0.505,5.608-0.914c1.957-0.417,4.003-0.922,6.081-1.562
			c4.16-1.267,8.459-3.043,12.651-5.216c4.184-2.179,8.258-4.76,11.947-7.565c1.851-1.395,3.595-2.857,5.236-4.297
			c1.635-1.453,3.152-2.908,4.529-4.31c2.752-2.808,4.931-5.428,6.408-7.353c1.479-1.923,2.251-3.152,2.251-3.15
			c0-0.003-1.32,0.464-3.503,1.356c-2.187,0.886-5.239,2.173-8.766,3.703c-1.762,0.769-3.646,1.594-5.609,2.459
			c-1.955,0.877-4.004,1.77-6.08,2.709c-4.158,1.867-8.456,3.855-12.643,5.836c-4.18,1.995-8.253,3.98-11.941,5.955
			c-1.847,0.981-3.593,1.971-5.234,2.915c-1.634,0.956-3.151,1.889-4.53,2.777c-2.752,1.785-4.935,3.423-6.412,4.657
			c-1.482,1.224-2.255,2.051-2.255,2.052c0-0.001,1.319,0.214,3.5,0.301C227.657,81.843,230.707,81.81,234.232,81.395z"/>
	</g>
</g>
</svg>
